<svg xmlns="http://www.w3.org/2000/svg" xmlns:xlink="http://www.w3.org/1999/xlink" viewBox="0 0 1920 1080"><defs><style>.cls-1{fill:none;}.cls-2{clip-path:url(#clip-path);}.cls-3{fill:#de7760;}.cls-4{fill:#fff;}.cls-5{fill:#95bae4;}.cls-6{opacity:0.5;}.cls-7{fill:#1d1d1b;}.cls-8{fill:#3f3f3b;}.cls-9{fill:#5e62aa;}.cls-10{fill:#554114;}.cls-11{fill:#edd8a9;}.cls-12{fill:#889ed2;}.cls-13{fill:#d3d3d3;}.cls-14{fill:#fafafa;}.cls-15{fill:#d4d7d6;}.cls-16{fill:#fdfdfd;}</style><clipPath id="clip-path"><rect class="cls-1" width="1920" height="1080"/></clipPath></defs><g id="Layer_2" data-name="Layer 2"><g id="머리"><g class="cls-2"><path class="cls-3" d="M1079.32,290.7c-130-34.17-264.42-63.06-389.6-112.86-22.92-9.45-45.56-19.69-66.55-33.14-11.88-8-24-16.74-31.09-29.62-8.53-15.92-1.52-29.94,12.11-40.31C634.53,52.2,701.32,36.08,779,24.54,713.74,33,648.58,43,584.76,58.88c-33.67,8.91-68.1,18.41-97.9,36.76-13.45,8.63-28.9,22.51-22,39.89,19.27,45,141.35,82.55,187.64,99.87,245.07,88.41,498.1,166.91,749.23,236.3,148,40.64,303.29,80.37,452.43,116.52L1920,603.91v-124c-143-27.94-287.19-58.71-428.52-90.58C1356.7,358.78,1213.51,324.26,1079.32,290.7Z"/><path class="cls-4" d="M1048.27.23l3.15-.23h-12.31q-20.77,1.37-41.54,2.91l7.15-.26C1019.83,1.74,1034.42.94,1048.27.23Z"/><path class="cls-3" d="M705.31,422.79c-118.87-57.32-237.2-117.84-343.43-197-9.16-7.09-19.48-15.05-28.31-22.55-9-7.51-20-16.28-26.54-26.34C278.88,135.12,328,107,361.49,93c29.8-12.5,60.86-21,92.14-28.59,101.06-22.06,203.4-36.62,306.25-47C647.84,24.22,536.09,34,425.41,53.57c-83.54,15.66-275.89,53.77-288.94,154.49C129,270.74,192,337.3,234.9,377.14c2.26,2.05,5.65,5.36,8.07,7.19,25,20.11,61.21,49.15,86.71,68.42,309,236.85,648,426.74,980.9,627.25H1920V899.84c-274.62-97.17-548.57-196.37-818.8-305.25C967.93,540.72,835.08,484.66,705.31,422.79Z"/><path class="cls-3" d="M608.53,231.79c-41.19-15.68-140.72-52.46-153.18-95.92-5.39-19,7.55-34.18,22.35-44.35a157.17,157.17,0,0,1,23.84-13.26C527.71,66.41,555.3,58.75,583.05,52,635.38,40,688.3,31.21,741.49,24.32,645.44,35.79,550,51.09,455.71,73c-30.64,7.82-61.29,16.68-90.26,29.27-19,8.65-44,20.76-53.4,39.87-6.31,13.61,1.83,27.1,11.44,36.83,4.29,4.53,12.63,11.08,17.63,15.17,3.06,2.43,6.25,5.19,9.24,7.45C460.89,286.22,587,348.08,712.75,407,1105,584.4,1512.86,724.34,1920,863.26V633.93C1476.2,522.38,1036,394.56,608.53,231.79Z"/><path class="cls-5" d="M221.21,392c-7.89-7.37-16.44-16.17-24-24-28.46-30.4-55.45-64-70.16-103.55C92.75,168.81,170.89,115.57,250.16,85.6c84.07-31,173-44.58,261.55-55.33C635.64,15.9,760.22,10.82,884.82,6.66Q935.76,2.93,986.74,0H0V1080H1233.64C889.75,866.78,539.88,660.49,229.6,399.72,227.1,397.77,223.55,394.2,221.21,392Z"/><path class="cls-5" d="M1370.27,73.48c-8.71,4.07-17.48,8.54-23.73,15.62-11.73,13.36,7.93,25.51,18.44,31.81,23.44,13.05,49.26,21.32,74.88,29.19,157,43.54,318.79,67.17,480.14,89.87V170.46c-119-8.23-237.79-22.29-354.57-46.9-30.62-7.28-61.74-14.24-90-28.65-8.8-4.86-23.82-14.47-17.53-26.4,5.31-8.59,17.55-12.62,26.24-15.89,24-8,48.6-12.52,73.35-16.91C1669.5,17.85,1782.59,7.91,1895.76,0h-16.94c-144.48,9.49-289.3,21.38-431.23,50.22C1421.39,56.15,1394.8,62.67,1370.27,73.48Z"/><path class="cls-5" d="M1522.39,50.62A327.78,327.78,0,0,0,1487,60.75c-6.93,2.65-13.74,5.23-19.17,9.79-1.56,1.47-3.06,3-1.92,4.82,2.9,5,8.79,8.28,14,11.11a145.25,145.25,0,0,0,16.56,7.16c23,8.38,47.28,14,71.34,19,116.07,22.41,234.09,34.4,352.22,40.58V0h-4.42c-94.66,8.08-189.21,17.77-283.28,31C1595.45,36.36,1558.63,42.17,1522.39,50.62Z"/><path class="cls-3" d="M1056.2,218.74c-33.52-7.38-67.17-15.29-100.56-23.28-43.15-9.9-86.21-20.4-128.43-34-18.78-6-37.41-12.64-55.62-20.45C753.33,133,735.1,124.38,720,110.9c-13.2-12-19.39-27.3-5.89-42.5,19.49-21.3,55.08-27.32,82.1-33.58C857.49,21,919.78,12.22,982.36,6,887.83,13.2,793.6,24.17,701.05,44.53c-23.67,5.72-47.28,12.22-69.5,22.19C622.07,71.1,612.89,76,605.15,83l-1.52,1.51a17.63,17.63,0,0,0-1.46,1.54l-1.36,1.6c-.43.54-.8,1.12-1.21,1.67l-.6.84c-5.31,8.31-3.94,16.83,1.83,24.92,6.88,9.42,16.79,16.56,26.64,22.89,20.57,12.82,43,22.64,65.58,31.59,101.75,39.39,212,64.25,318,90.15,90.84,22.16,195.35,46.53,286.82,67.1C1504,373.42,1711.66,416.39,1920,454.4V385.17c-249.76-46.38-499.15-92.55-748.45-141.8C1134.75,235.77,1092.91,226.94,1056.2,218.74Z"/><path class="cls-5" d="M797.16,39.2c-25.7,6.33-60.7,12.69-78.81,32.9-6.14,7.09-8.15,15.46-3.07,23.75a45,45,0,0,0,8.88,10.43c14.46,12.54,32.55,20.77,50.17,28.26C847,164,924.68,178.47,1000.92,195.77c287.92,61.58,579.53,105.85,869.27,158.28q24.81,4.21,49.81,8.3V259.22q-41.55-6.51-83-13.36c-107.66-18-215.16-37.14-321.29-63.09-39.81-10-79.63-20.69-118-35.51-12.93-5.09-25.65-10.61-37.7-17.72a88.56,88.56,0,0,1-17.32-12.95c-23.15-23.94,2-41.76,24.11-51.1,25.57-10.81,52.37-16.93,79.31-22.6C1583.26,17.17,1722.81,7.21,1862.16,0H1080.84q-27.31,1.83-54.66,3.4C949.15,10.81,872.4,21.23,797.16,39.2Z"/><path class="cls-4" d="M1017.61,0h-6.13q-21.5,1.49-43,3.07Q993,1.44,1017.61,0Z"/><path class="cls-4" d="M1044.52,1.7q-9.16.83-18.34,1.7,27.35-1.57,54.66-3.4h-7.78Q1058.8.81,1044.52,1.7Z"/><path class="cls-4" d="M243,384.33c-2.42-1.83-5.81-5.14-8.07-7.19C192,337.3,129,270.74,136.47,208.06,149.52,107.34,341.87,69.23,425.41,53.57,536.09,34,647.84,24.22,759.88,17.43q62.37-6.3,124.94-10.77c-124.6,4.16-249.18,9.24-373.11,23.61C423.2,41,334.23,54.55,250.16,85.6c-79.27,30-157.41,83.21-123.09,178.89C141.78,304,168.77,337.64,197.23,368c7.54,7.81,16.09,16.61,24,24,2.34,2.18,5.89,5.75,8.39,7.7,310.28,260.77,660.15,467.06,1004,680.28h76.94C977.69,879.49,638.63,689.6,329.68,452.75,304.18,433.48,268,404.44,243,384.33Z"/><path class="cls-4" d="M1004.72,2.65l-7.15.26q-8.3.61-16.57,1.25Q993,3.37,1004.72,2.65Z"/><path class="cls-4" d="M948.61,4.56q24.48-.79,49-1.65,20.76-1.55,41.54-2.91h-21.5Q993,1.42,968.48,3.07Z"/><path class="cls-4" d="M1401.73,471.7C1150.6,402.31,897.57,323.81,652.5,235.4c-46.29-17.32-168.37-54.86-187.64-99.87-6.9-17.38,8.55-31.26,22-39.89,29.8-18.35,64.23-27.85,97.9-36.76C648.58,43,713.74,33,779,24.54c42.71-6.35,88.71-11.31,133.74-15.19Q886.14,10.66,859.57,12q-59.13,5.39-118.08,12.33C688.3,31.21,635.38,40,583.05,52c-27.75,6.77-55.34,14.43-81.51,26.28A157.17,157.17,0,0,0,477.7,91.52c-14.8,10.17-27.74,25.33-22.35,44.35,12.46,43.46,112,80.24,153.18,95.92C1036,394.56,1476.2,522.38,1920,633.93v-30l-65.84-15.69C1705,552.07,1549.73,512.34,1401.73,471.7Z"/><path class="cls-4" d="M912.7,9.35c23.22-2,46.18-3.72,68.3-5.19q8.28-.65,16.57-1.25-24.48.85-49,1.65Q904.08,8,859.57,12,886.14,10.66,912.7,9.35Z"/><path class="cls-4" d="M1000.92,195.77C924.68,178.47,847,164,774.33,134.54c-17.62-7.49-35.71-15.72-50.17-28.26a45,45,0,0,1-8.88-10.43c-5.08-8.29-3.07-16.66,3.07-23.75,18.11-20.21,53.11-26.57,78.81-32.9,75.24-18,152-28.39,229-35.8q-18.5,1.07-37,2.05L982.36,6C919.78,12.22,857.49,21,796.16,34.82c-27,6.26-62.61,12.28-82.1,33.58C700.56,83.6,706.75,99,720,110.9c15.15,13.48,33.38,22,51.64,30.11,18.21,7.81,36.84,14.41,55.62,20.45,42.22,13.6,85.28,24.1,128.43,34,33.39,8,67,15.9,100.56,23.28,36.71,8.2,78.55,17,115.35,24.63,249.3,49.25,498.69,95.42,748.45,141.8V362.35q-25-4.07-49.81-8.3C1580.45,301.62,1288.84,257.35,1000.92,195.77Z"/><path class="cls-4" d="M1052.93,0h-1.51l-3.15.23Z"/><path class="cls-4" d="M1026.18,3.4q9.16-.88,18.34-1.7-27.68,1.71-55.35,3.75Q1007.68,4.46,1026.18,3.4Z"/><path class="cls-4" d="M1366.72,65.49c-22.14,9.34-47.26,27.16-24.11,51.1a88.56,88.56,0,0,0,17.32,12.95c12,7.11,24.77,12.63,37.7,17.72,38.41,14.82,78.23,25.53,118,35.51,106.13,25.95,213.63,45.08,321.29,63.09q41.49,6.87,83,13.36V240c-161.35-22.7-323.1-46.33-480.14-89.87-25.62-7.87-51.44-16.14-74.88-29.19-10.51-6.3-30.17-18.45-18.44-31.81,6.25-7.08,15-11.55,23.73-15.62,24.53-10.81,51.12-17.33,77.32-23.26C1589.52,21.38,1734.34,9.49,1878.82,0h-16.66C1722.81,7.21,1583.26,17.17,1446,42.89,1419.09,48.56,1392.29,54.68,1366.72,65.49Z"/><path class="cls-4" d="M1484.09,52.62c-8.69,3.27-20.93,7.3-26.24,15.89-6.29,11.93,8.73,21.54,17.53,26.4,28.31,14.41,59.43,21.37,90,28.65,116.78,24.61,235.52,38.67,354.57,46.9V153.24c-118.13-6.18-236.15-18.17-352.22-40.58-24.06-5.06-48.29-10.65-71.34-19a145.25,145.25,0,0,1-16.56-7.16c-5.2-2.83-11.09-6.08-14-11.11-1.14-1.81.36-3.35,1.92-4.82,5.43-4.56,12.24-7.14,19.17-9.79a327.78,327.78,0,0,1,35.41-10.13c36.24-8.45,73.06-14.26,109.91-19.64,94.07-13.21,188.62-22.9,283.28-31h-19.82c-113.17,7.91-226.26,17.85-338.32,35.71C1532.69,40.1,1508.09,44.59,1484.09,52.62Z"/><path class="cls-4" d="M350.36,201.54c-3-2.26-6.18-5-9.24-7.45-5-4.09-13.34-10.64-17.63-15.17-9.61-9.73-17.75-23.22-11.44-36.83,9.38-19.11,34.41-31.22,53.4-39.87,29-12.59,59.62-21.45,90.26-29.27C550,51.09,645.44,35.79,741.49,24.32c36.71-4.75,73.55-8.6,110.43-11.94q-46,2.34-92,5c-102.85,10.4-205.19,25-306.25,47C422.35,72,391.29,80.54,361.49,93,328,107,278.88,135.12,307,176.92c6.58,10.06,17.5,18.83,26.54,26.34,8.83,7.5,19.15,15.46,28.31,22.55,106.23,79.14,224.56,139.66,343.43,197,129.77,61.87,262.62,117.93,395.89,171.8,270.23,108.88,544.18,208.08,818.8,305.25V863.26C1512.86,724.34,1105,584.4,712.75,407,587,348.08,460.89,286.22,350.36,201.54Z"/><path class="cls-4" d="M947.25,4.61l15.37-1.15,5.86-.39Q990,1.48,1011.48,0H986.74q-51,3-101.92,6.66Q916,5.61,947.25,4.61Z"/><path class="cls-4" d="M884.82,6.66q-62.55,4.58-124.94,10.77,46-2.77,92-5C883.69,9.5,915.48,7,947.25,4.61Q916,5.63,884.82,6.66Z"/><path class="cls-4" d="M968.48,3.07l-5.86.39L947.25,4.61l1.36-.05Z"/><path class="cls-4" d="M851.92,12.38C815,15.72,778.2,19.57,741.49,24.32q58.92-7,118.08-12.33Z"/><path class="cls-4" d="M948.61,4.56l-1.36.05C915.48,7,883.69,9.5,851.92,12.38l7.65-.39Q904.06,7.92,948.61,4.56Z"/><path class="cls-4" d="M1011.08,259.73C905,233.83,794.8,209,693.05,169.58c-22.55-9-45-18.77-65.58-31.59-9.85-6.33-19.76-13.47-26.64-22.89-5.77-8.09-7.14-16.61-1.83-24.92l.6-.84c.41-.55.78-1.13,1.21-1.67l1.36-1.6a17.63,17.63,0,0,1,1.46-1.54L605.15,83c7.74-7,16.92-11.92,26.4-16.3,22.22-10,45.83-16.47,69.5-22.19C793.6,24.17,887.83,13.2,982.36,6l3.3-.33q-28.9,1.55-57.83,3-67.19,6-134.15,14.06L779,24.54C701.32,36.08,634.53,52.2,604.19,74.77c-13.63,10.37-20.64,24.39-12.11,40.31,7.11,12.88,19.21,21.66,31.09,29.62,21,13.45,43.63,23.69,66.55,33.14,125.18,49.8,259.6,78.69,389.6,112.86,134.19,33.56,277.38,68.08,412.16,98.61C1632.81,421.18,1777,452,1920,479.89V454.4c-208.34-38-416-81-622.1-127.57C1206.43,306.26,1101.92,281.89,1011.08,259.73Z"/><path class="cls-4" d="M1068.19,0h-4.28l-6.23.53Z"/><path class="cls-4" d="M1048.27.23c-13.85.71-28.44,1.51-43.55,2.42q12-.42,24-.87Q1038.49,1,1048.27.23Z"/><path class="cls-4" d="M1004.72,2.65Q993.05,3.37,981,4.16q-26.6,2.07-53.17,4.44,28.92-1.44,57.83-3,21.51-2.11,43.05-3.86Q1016.71,2.23,1004.72,2.65Z"/><path class="cls-4" d="M1044.52,1.7Q1058.8.82,1073.06,0h-4.87l-10.51.53Z"/><path class="cls-4" d="M779,24.54l14.72-1.88Q860.63,14.53,927.83,8.6l-15.13.75C867.67,13.23,821.67,18.19,779,24.54Z"/><path class="cls-4" d="M912.7,9.35l15.13-.75Q954.41,6.23,981,4.16C958.88,5.63,935.92,7.35,912.7,9.35Z"/><path class="cls-4" d="M1028.71,1.78l15.21-.59c4.59-.22,9.18-.43,13.76-.66l6.23-.53h-11l-4.66.23Q1038.49,1,1028.71,1.78Z"/><path class="cls-4" d="M982.36,6l6.81-.52-3.51.19Z"/><path class="cls-4" d="M1043.92,1.19l-15.21.59q-21.54,1.76-43.05,3.86l3.51-.19q27.66-2.06,55.35-3.75L1057.68.53C1053.1.76,1048.51,1,1043.92,1.19Z"/><g class="cls-6"><path d="M1274.33,853.15c-14-11.12-38.58-23.29-67.46-33.43l-3.52-2.2-1.63-1c-5.78-3.49-9.52-6.72-12-9.8a2.36,2.36,0,0,0,.91-.5c.75-.78-.11-2-1.16-3.2a40.55,40.55,0,0,0-4.06-4c-1.31-3.69-1.77-7.29-3.09-11q-8.31-.7-17.29-2l-1-.48q8.52,1.18,16.42,1.84a26.68,26.68,0,0,0-1.43-3.31c-5.11-9.8-20-21.31-36.73-32.73a145.3,145.3,0,0,1-11.87-8.56,53.27,53.27,0,0,1-9-10.2q-14.91-20.16-38.23-41.69a192.56,192.56,0,0,0-20.51-16.78c-23.26-16.29-60.18-33.2-100.43-48.4a68.19,68.19,0,0,0-9.22-6c-12.81-7.42-28-12.46-44-19.73-12.28-5.6-21.21-9.38-33.19-15-15-7-29.39-18.32-41.14-25.45l-1.16-.71,2,.49a42.24,42.24,0,0,0,11.48-.71,169.14,169.14,0,0,1,18.64,6.8L893.34,577c13.49,5.61,27.22,11.3,42.48,16.18s32.55,8.91,45.47,9.57c5.52.28,6.19-1.78,5.37-3.74-1.57-3.73-9.6-8.53-19.54-12.81s-21.68-8.13-33.4-11.79c-11.36-3.54-22.91-7-33.91-10.74-12.93-4.42-24.79-9.17-36.39-14l-1.87-.25a6.64,6.64,0,0,0-.52-2c-.56-2.44-3.26-5.37-7.81-8.41a8.47,8.47,0,0,0-2-1,23.24,23.24,0,0,0-2.61-.75c-10.46-2.57-20.29-6.29-30.51-9.43a329,329,0,0,0-52.77-11.18c-16.63-2.17-31.66-3-46.55-3.9l-14.4-.82.09.05c-2.68-1-5.2-2.09-7.46-3.18a115.89,115.89,0,0,1-14-8.19l7.86.37c7.69,2.11,14.13,1.57,14.95-.37s-2.36-4.81-5.48-7.55L681.9,476.8a48.32,48.32,0,0,0-8.95-6.57c-5.17-2.9-12.47-5.68-19.87-8.18A256,256,0,0,0,619.6,453c-11.1-2.12-21.64-2.94-27.42-1.65L589.1,451c-11.42-2.72-22.59-3.95-29.91-3.31-8.1.71-11.19,3.51-15.81,5.65s-11.17,3.7-19.15,4.54c-2.52.26-5.27.48-6.1,1.38-1.51,1.64,3.74,4.8,8.66,7.54,3.15,1.76,6.33,3.52,10,5.25,6.49,3.08,14.25,5.95,21.91,8.78,8.38,3.1,16.9,6.25,26,8.86a266.25,266.25,0,0,0,43.23,8.24l1.79.08c1.53.49,3.09,1,4.67,1.43l-1,0c7.56,4.48,11.7,8.86,11.57,12.19-.58-.19-1.09-.35-1.46-.44l-1.45.21c-15.49.68-30.18,1.14-45.67,1.81-4.48.2-9,.4-12.12,1.21a14.33,14.33,0,0,0-6,3.32c-7.07,5.84-14.21,11.89-10.71,20.53a3.11,3.11,0,0,0,1.78,1.75,24.51,24.51,0,0,0,3.32,1.24c5.79,1.85,11.68,3.62,17.61,5.33,7.57,8.89,21.49,18.8,38.41,28.63,20.29,11.79,44.82,23.54,69.93,35.12,5.59,2.58,11.38,5.25,14.74,7.81,3,2.26,3.74,4.23,5.06,6.26a36.06,36.06,0,0,0,7.44,7.83,47,47,0,0,0,13,7.53c6,2.4,14.58,4.35,18.65,3.82,5.66-.75.64-5.65,8.16-5.44,1.07,0,2.34.18,3.26.12,2.74-.17.95-2-2.27-3.53s-7.39-2.76-11.11-4.15c-6.79-2.53-12.12-5.56-14.24-8.07,3.17-.49,9.79,3.26,15.28,4.39,5.86,1.22,5.49-1.35,2.21-3.54-6.43-4.28-17.85-8.82-29.48-11.7-3.07-.77-6.24-1.45-9.14-2.45a40.76,40.76,0,0,1-8.23-4c-13.87-8.32-27.18-16.63-40.46-24.94q-8.34-5.22-16.62-10.43c-2.2-1.39-4.35-2.81-6.81-4.2l.47.2-.9-.57-2.82-2.44s-.5-1.55-1-3.4l4,.78c1.55-2.51,1.68-10.82,1.68-10.82,38.25,22,93.47,41.89,127.39,63.74,5.68,3.66,10.89,7.32,18,11a116.83,116.83,0,0,0,19.1,7.69c.89,1,1.57,1.69,1.57,1.69,13.23,10.47,36.42,21.71,62.22,31.79s54.24,19.17,82.71,27.81l9.29,2.8,40.27,17.63a54.45,54.45,0,0,0,7.66,6.06c3.09,2,6.79,4.11,10.62,6.18a342.3,342.3,0,0,0,33.77,6.1l.72.46c-10.43-1.4-21.52-3.33-32.67-6,6.75,3.64,13.94,7.29,19.1,10.88-3.24-.65-5.59-1-5.59-1-2.19,0-2.3.85-1.93,1.73,3.23,7.49,26.57,17.54,39.52,26.45,5.94,4.08,9.72,8,15.58,12.06,10.62,7.38,28.33,15.18,47.83,21.35.37,1.93.13,3.7-1.92,4.93-1.71,1-4.68,1.68-4.47,3.25.35,2.61,9.27,6.58,17.91,9.48s18.14,5.46,25.69,8.72c13.61,5.89,15.91,11.72,25.21,17.76,12.25,8,38.29,16.16,57.37,18.09,7,.71,13.39.53,14.2-1.46C1279.11,857.22,1276.86,855.15,1274.33,853.15ZM1096.4,757.39l-.39-.08c1.65.27,3.25.48,4.69.58A29,29,0,0,1,1096.4,757.39Zm-74.79-47.26-.18-.13,9.81,2.28.18.11Q1026.52,711.31,1021.61,710.13Z"/></g><path class="cls-4" d="M1262.67,767.5c-1.91,3.42-5,6.73-4.52,10.56a12.29,12.29,0,0,0,1.57,4.14q1.82,3.43,3.78,6.79c1.63,2.81,4.21,6,7.62,5.49,1.86-.27,3.29-1.62,4.57-2.9l4.89-4.86.34-1.86c3.1-20.1,21.2-34.36,35.5-50.19a85.43,85.43,0,0,1-16.51-6.08,62.17,62.17,0,0,1-15.11-10.45c-5.21,9.2-12.66,17.54-20,25.56-1.11,1.21-2.23,2.44-3.38,3.64A19.39,19.39,0,0,1,1262.67,767.5Z"/><path class="cls-7" d="M1260.89,766.46c-1.9,3.34-4.63,6.45-4.84,10.46a12.47,12.47,0,0,0,1.89,6.32q1.65,3.12,3.41,6.16c1.73,3,4.06,6.34,7.69,7.05,4.49.87,7.53-2.84,10.38-5.67,1.25-1.25,2.94-2.4,3.27-4.21.25-1.36.47-2.73.78-4.08a42.81,42.81,0,0,1,3.61-9.79c3.32-6.51,7.92-12.23,12.81-17.63,5.85-6.45,12.14-12.49,18-19a2.08,2.08,0,0,0-.91-3.44c-11.3-3-22.14-7.91-30.72-16a2.07,2.07,0,0,0-3.23.42c-6.07,10.65-14.59,19.95-23,28.78a2.1,2.1,0,0,0-.33,2.5,17.52,17.52,0,0,1,1.21,18.08c-1.26,2.33,2.29,4.41,3.56,2.07a21.66,21.66,0,0,0-1.21-22.23l-.32,2.5c8.66-9.08,17.42-18.67,23.66-29.62l-3.24.41c9.09,8.57,20.55,13.9,32.53,17.06l-.91-3.44c-11.81,13.06-26.48,24.88-33.34,41.56a57,57,0,0,0-3,11.41l.53-.91-4.53,4.51c-1,1-2.2,2.41-3.73,2.66-2.74.45-4.69-2.94-5.83-4.91q-1.52-2.62-3-5.3c-.81-1.52-1.89-3.15-1.9-4.93,0-3.21,2.78-6.13,4.28-8.77C1265.76,766.23,1262.2,764.15,1260.89,766.46Z"/><path class="cls-8" d="M1298,665.14c-2.2,6-4.41,12-5.51,18.26s-1.1,12.37-2.41,18.45a53.69,53.69,0,0,1-6,15.11,61.93,61.93,0,0,0,15.11,10.46,85.53,85.53,0,0,0,16.52,6.08c1.71-1.9,3.38-3.83,5-5.79,13.8-17.16,21.21-38,26.55-58.74,1.35-5.24,2.58-10.52,4.7-15.53,2.7-6.43,6.79-12.27,10.74-18.12a567.08,567.08,0,0,0,42.32-74.22c4.66-9.84,9-19.84,11.94-30.24,8.43-30.17,4-62.45-7.15-91.85,0,0-32.42-45.44-57.85-27.28L1269.34,432s-9.86-2.93-12.08-.59-7.54,12-7.54,12c-7,18.9-5.63,39.82.57,59s17,36.75,28.59,53.61c7.28,10.55,15,21,24.27,30.09L1315,596.25A111.55,111.55,0,0,1,1303.15,586L1297,580.7c-5,7.84-10.19,15.86-12.26,24.77a62,62,0,0,0-1.35,11.36A76,76,0,0,0,1305.81,630a172.6,172.6,0,0,0,20.72,6.42,293.94,293.94,0,0,0,34-34.49,73.37,73.37,0,0,0,9.32-13.32c8.59-16.9,4.16-37.09-4.09-54.14s-23.6-37.63-30.41-55.22"/><path class="cls-7" d="M1296.05,664.59c-1.56,4.25-3.12,8.5-4.3,12.88a82.12,82.12,0,0,0-2.22,13.32,75.15,75.15,0,0,1-2.1,13.34,54.57,54.57,0,0,1-5,11.79,2.12,2.12,0,0,0,.32,2.5c9.11,8.57,20.54,13.89,32.54,17.06a2.06,2.06,0,0,0,2-.53A126.75,126.75,0,0,0,1341,695.88a213.87,213.87,0,0,0,7-21.57c2.09-7.64,3.55-15.58,7.09-22.74s8.4-13.63,12.79-20.28q6.87-10.42,13.26-21.12,12.75-21.3,23.59-43.68c7-14.52,13.68-29.37,16.61-45.34a139.27,139.27,0,0,0,.06-47.5,174.88,174.88,0,0,0-5.55-23.48c-1.16-3.75-2.42-7.49-3.82-11.16a6.16,6.16,0,0,0-.89-1.69,120.44,120.44,0,0,0-11.69-13.43c-11.76-11.66-30.69-25.27-47.34-14.73-.1.07-1.15.79-.69.59l-.06,0c-.13.05-.29.06-.42.1-.54.15-1.09.26-1.64.4l-6.38,1.56L1321.84,417l-45.7,11.17-5.78,1.41a12.08,12.08,0,0,0-1.35.33c-.06,0-.17,0-.21.06.87-.71,1.43.2.89-.06a6.05,6.05,0,0,0-.73-.2,41.84,41.84,0,0,0-6.56-1.21c-2-.2-4.33-.24-6,.95s-2.81,3.4-3.87,5.09c-1.24,2-2.41,4-3.57,6-2.87,5.06-4.09,11.19-5,16.9a89.3,89.3,0,0,0-.43,23.44c1.76,15.75,7.16,30.73,14.36,44.77s16.2,27.56,25.63,40.38a191.16,191.16,0,0,0,15.08,18.29,109.73,109.73,0,0,0,8.16,7.53l6.76,5.84,2.5-3.24c-6.21-4.64-11.73-10.16-17.6-15.22a2.1,2.1,0,0,0-3.24.41c-5.07,7.88-10.32,16-12.47,25.26a54.71,54.71,0,0,0-1.1,7.09c-.2,2.11-1,5,.69,6.63a57,57,0,0,0,11.29,7.88,117.28,117.28,0,0,0,26,10.17c1.16.33,2.33.65,3.5,1a13.71,13.71,0,0,0,3.47.83c1.17-.05,2-1.06,2.81-1.77l2.67-2.36q5.52-4.94,10.8-10.15c6.7-6.62,13.1-13.56,19.12-20.81s11.23-14.67,13.34-23.88c4-17.27-1.93-35.22-10-50.41-9-16.94-21-32.46-28-50.39-1-2.45-4.94-1.38-4,1.09,8.26,21.14,23.3,38.75,32.36,59.48,4.66,10.65,7.67,22.47,6.46,34.15a40.73,40.73,0,0,1-5.36,16.42c-3.15,5.39-7.29,10.17-11.36,14.88A295.42,295.42,0,0,1,1325.08,635l2-.53c-15-3.83-30.39-8.68-42.27-19.06l.61,1.46a51.48,51.48,0,0,1,3.93-18.7,121,121,0,0,1,9.4-16.39l-3.23.42c6.13,5.3,11.93,11,18.43,15.87,1.86,1.39,4.26-1.71,2.5-3.24-5-4.29-10.19-8.39-14.73-13.15-10.78-11.31-19.77-24.33-28.22-37.43-16.5-25.58-30.7-55.85-25.33-87.09.9-5.24,2.09-10.58,4.74-15.22,1.17-2,2.36-4.07,3.63-6,.51-.8,1-1.64,1.61-2.37s.46-.76,1.32-.9a16.67,16.67,0,0,1,6.08.55c1.35.28,3,1,4.33.8.79-.12,1.58-.38,2.35-.57l39.45-9.65,38.73-9.47a10,10,0,0,0,2.91-.93c3.66-2.24,7.27-3.78,11.63-3.8,8.51-.05,16.49,4.64,23,9.69a106.59,106.59,0,0,1,16.46,16.23c.77.92,1.52,1.85,2.25,2.78.13.16.47.61.16.2l.37.48c.18.25.39.49.56.75a15.53,15.53,0,0,1,1.41,3.51q2,5.55,3.64,11.23a155,155,0,0,1,6.48,46,126.82,126.82,0,0,1-9.83,45.83c-6.1,14.91-13.58,29.36-21.32,43.47S1372,617.75,1363,631.24c-4.29,6.45-9,12.75-12.2,19.83S1346,666,1344,673.48c-3.89,14.16-8.89,28.11-16.41,40.78A112.5,112.5,0,0,1,1314.33,732l2-.53c-11.31-3-22.12-7.92-30.71-16l.32,2.49a60.38,60.38,0,0,0,5.22-11.94,70,70,0,0,0,2.31-13.42,86.3,86.3,0,0,1,2.1-13.48c1.19-4.58,2.82-9,4.45-13.47.92-2.49-3.06-3.57-4-1.1Z"/><path class="cls-9" d="M1275.69,791.58c-1.28,1.28-2.71,2.63-4.57,2.9-3.41.51-6-2.68-7.62-5.49q-2-3.36-3.78-6.79a12.29,12.29,0,0,1-1.57-4.14c-.46-3.83,2.61-7.14,4.52-10.56a19.39,19.39,0,0,0-1.21-20.16c-3.73,3.89-7.78,7.53-12.81,9.76-3.67,1.63-7.88,2.54-10.7,5.25-4.68,4.5-3.46,11.95-.46,17.54s7.49,10.67,8.7,16.81c2.19,11.06-6.75,21.22-9.14,32.24-3.16,14.52,6.89,30.47,22.13,35.14,5.6,1.72,12.28,1.87,16.93-1.49,3.27-2.37,5-6.07,6.36-9.7a80.61,80.61,0,0,0-2.63-62.14l.74-4Z"/><path class="cls-7" d="M1274.24,790.12c-1.1,1.09-2.45,2.54-4.16,2.35-1.43-.17-2.6-1.4-3.45-2.47a34.42,34.42,0,0,1-2.92-4.79,44.36,44.36,0,0,1-3.14-6c-1.34-3.6,1.51-6.77,3.27-9.66a21,21,0,0,0,3.16-10.91,22.19,22.19,0,0,0-3.76-12.35,2.09,2.09,0,0,0-3.23-.42,45,45,0,0,1-9.78,8.11c-3.46,2-7.44,2.82-10.89,4.8a12.55,12.55,0,0,0-6.38,9.11,20.64,20.64,0,0,0,1.88,11.23c3.24,7.37,10,13.35,9.62,22-.35,8.08-5.4,15.31-8.06,22.74a30.34,30.34,0,0,0-.09,21,35.43,35.43,0,0,0,13,16.68c6.3,4.39,14.7,7,22.35,5.27a15.92,15.92,0,0,0,9.74-6.89c2.31-3.47,3.64-7.67,4.81-11.64a82.85,82.85,0,0,0-2-52.43q-1.18-3.12-2.6-6.13l.2,1.58.74-4a2.07,2.07,0,0,0-3.44-2l-4.88,4.85c-1.89,1.88,1,4.79,2.91,2.92l4.88-4.86-3.44-2-.48,2.6c-.08.44-.17.87-.24,1.3a4.37,4.37,0,0,0,.65,2.7,77.08,77.08,0,0,1,4.31,12.25,79.38,79.38,0,0,1,2.36,25.87,75.28,75.28,0,0,1-2.07,12.92,55,55,0,0,1-4.13,12c-1.78,3.48-4.4,6-8.26,7a21.44,21.44,0,0,1-11.52-.85c-12.57-4.1-22.48-17.47-20.45-31,1.19-8,6-14.83,8.4-22.4a25.21,25.21,0,0,0,1.12-11.84c-.68-4.17-2.86-7.94-5.09-11.46-2.08-3.29-4.4-6.54-5.54-10.31-1-3.19-1.26-6.86.62-9.79,2-3.13,6-4.14,9.3-5.41a37.19,37.19,0,0,0,10.87-6.65c1.57-1.36,3-2.82,4.48-4.31l-3.24-.42a18.3,18.3,0,0,1,3.17,11.25,15.74,15.74,0,0,1-1.42,5.76,59.56,59.56,0,0,1-3.19,5.33,14,14,0,0,0-2.16,5.83,11.86,11.86,0,0,0,1.76,6.49c1.16,2.22,2.38,4.41,3.63,6.57a19.19,19.19,0,0,0,3.45,4.59,8,8,0,0,0,5.85,2.38c2.61-.17,4.59-1.77,6.38-3.54S1276.12,788.26,1274.24,790.12Z"/><path class="cls-9" d="M1300.78,706.89c-.37-9.55,8.5-19.89,3.76-28.4-4.21-7.56-6.75,1.86-14.38-2.54s-6.2-18-2.86-26.36-9-13.64-9-13.64c-2.1-.23-3.93,1.29-5.24,2.82-11.23,13.08-7.39,32-11.69,48.18-2,7.43-5.71,14.38-7.75,21.8-5.29,19.29,2.33,41.07,18.83,53.89,4.84,3.76,11.85,6.81,17.22,3.75a14.57,14.57,0,0,0,5-5.56,58.85,58.85,0,0,0,8.29-32.46C1302.71,721.18,1301.05,714.08,1300.78,706.89Z"/><path class="cls-7" d="M1302.84,706.89c-.27-10.28,9.88-21.22,2.47-31a5.58,5.58,0,0,0-4.62-2.53,14.54,14.54,0,0,0-4.16,1.28,5.54,5.54,0,0,1-4.72-.15,8.08,8.08,0,0,1-3.83-4c-1.87-4-1.55-9-.76-13.18a39.16,39.16,0,0,1,1.85-6.64,10.12,10.12,0,0,0,.56-6.26c-.94-3.73-4.06-6.56-7.18-8.57a23.22,23.22,0,0,0-2.8-1.56c-2.07-1-4.4-.08-6.12,1.24a23,23,0,0,0-5.49,6.88,37.72,37.72,0,0,0-3.22,7.64,83.83,83.83,0,0,0-2.76,17,138.3,138.3,0,0,1-2,16.74c-1.41,6.64-4.33,12.77-6.65,19.12a52.65,52.65,0,0,0-1.31,33.14,55.52,55.52,0,0,0,18.21,27.44c4.56,3.67,10.38,6.92,16.44,6,6.57-1,9.92-7.34,12.49-12.79a62,62,0,0,0,5.44-18.75c.88-7,.18-13.77-.76-20.68-.47-3.46-.91-6.93-1.06-10.43-.11-2.64-4.23-2.65-4.12,0,.35,8.22,2.38,16.3,2.28,24.55a56.29,56.29,0,0,1-4.79,22c-1.45,3.28-3.11,7-5.61,9.61-2.29,2.41-5.43,2.93-8.58,2.16-6.36-1.55-11.67-6.59-15.81-11.43a50.61,50.61,0,0,1-12.11-34.53c.29-7.11,2.57-13.67,5.19-20.22a100.33,100.33,0,0,0,4.11-11.55,71.7,71.7,0,0,0,1.79-10c1.51-12.44.61-27.2,9.37-37.29,1-1.16,2.16-2.31,3.78-2.22l-1-.28a21,21,0,0,1,3.58,2,12.35,12.35,0,0,1,4.53,5c1,2.68-.58,5.29-1.36,8.06a38.63,38.63,0,0,0-1.51,10.85c.08,6.52,2.84,14.29,10.2,15.47a9.61,9.61,0,0,0,4.39-.29c1-.31,2-.81,3-1.13l.57-.16c.48-.11-.23,0,.25,0s-.2-.16.23,0c-.3-.14.3.21.11,0a7.91,7.91,0,0,1,2.26,3.84c1.11,4-.52,8.34-1.81,12.11-1.48,4.32-3.12,8.73-3,13.36C1298.79,709.54,1302.91,709.55,1302.84,706.89Z"/><path class="cls-7" d="M1280.86,694.64l17.12-3.11a2.06,2.06,0,1,0-1.1-4l-17.11,3.1a2.08,2.08,0,0,0-1.44,2.54,2.1,2.1,0,0,0,2.53,1.44Z"/><path class="cls-7" d="M1280.81,686.84a29.18,29.18,0,0,0,13.11,10.26,2.06,2.06,0,0,0,2.53-1.44,2.12,2.12,0,0,0-1.44-2.53l-.29-.12-.28-.12-.87-.41c-.54-.27-1.08-.56-1.6-.86s-1-.63-1.54-1l-.78-.55-.38-.28c-.28-.2.36.29-.11-.08a27.22,27.22,0,0,1-2.64-2.4c-.43-.45-.84-.91-1.24-1.39a3.25,3.25,0,0,1-.23-.29c-.38-.45.12.18-.08-.09l-.6-.82a2.06,2.06,0,1,0-3.56,2.08Z"/><path class="cls-7" d="M1279.43,705.66a60.75,60.75,0,0,0,14.06-2.8,2.1,2.1,0,0,0,1.44-2.53,2.07,2.07,0,0,0-2.53-1.44,56.42,56.42,0,0,1-13,2.65,2.06,2.06,0,0,0,0,4.12Z"/><path class="cls-7" d="M1282.21,696.11a29,29,0,0,0,11,12.2,2.07,2.07,0,0,0,2.81-.74,2.1,2.1,0,0,0-.74-2.82c-.55-.35-1.09-.71-1.62-1.09l-.38-.28c-.3-.22.08.07-.1-.08l-.79-.64a29.24,29.24,0,0,1-2.7-2.64c-.2-.22-.4-.45-.59-.69s-.2-.23-.29-.35-.33-.42-.18-.22-.14-.19-.17-.23l-.32-.44-.51-.75a25.89,25.89,0,0,1-1.83-3.3,2.06,2.06,0,0,0-2.82-.74,2.11,2.11,0,0,0-.74,2.81Z"/><path class="cls-7" d="M1281.38,707.42l8.93,8.73a2.06,2.06,0,0,0,2.92-2.91l-8.94-8.73a2.06,2.06,0,1,0-2.91,2.91Z"/><path class="cls-7" d="M1293.47,704.67a24.89,24.89,0,0,1-11.75,3.64,2.06,2.06,0,1,0,0,4.12,29.19,29.19,0,0,0,13.83-4.2,2.06,2.06,0,0,0-2.08-3.56Z"/><path class="cls-4" d="M1284,618c-.31,6.75-.21,13.55-2,20.07-1.33,4.85-3.68,9.43-5,14.29s-1.41,10.31,1.5,14.53c1.79,2.6,4.54,4.49,7.23,6.32s5.57,3.73,8.9,4.12,7.21-1.32,7.79-4.37l2.35-7.51c1.58-10.63,9.68-18.51,18.27-25.75.87-.72,1.89-2.33,2.74-3.07-7-1.79-12.64-2.82-19.35-5.46A75.84,75.84,0,0,1,1284,618Z"/><path class="cls-7" d="M1281.93,618c-.23,5.21-.18,10.48-1.07,15.63s-3,9.81-4.73,14.69c-1.55,4.38-2.52,9-1.74,13.66.82,4.85,3.87,8.34,7.71,11.18s7.83,5.73,12.55,6.23c3.77.41,8.36-1.46,9.62-5.29.65-2,1.24-4,1.87-6.05.85-2.72,1.23-5.55,2.35-8.19a38.3,38.3,0,0,1,8.2-11.55c1.8-1.85,3.7-3.59,5.64-5.28.87-.76,1.84-1.46,2.63-2.3s1.44-1.85,2.3-2.64a2.08,2.08,0,0,0-.91-3.45c-7.35-1.86-14.72-3.42-21.71-6.42a71.67,71.67,0,0,1-19.19-11.68c-2-1.73-4.92,1.17-2.92,2.92a75.77,75.77,0,0,0,20,12.32c7.34,3.15,15,4.88,22.69,6.84l-.9-3.45a21.84,21.84,0,0,0-1.84,2.12,17.22,17.22,0,0,1-2.16,2c-1.65,1.42-3.28,2.87-4.86,4.38a54.56,54.56,0,0,0-8,9.41,31.55,31.55,0,0,0-4.61,11.41,50.67,50.67,0,0,1-1.71,5.63c-.23.74-.48,1.48-.69,2.23a3.63,3.63,0,0,1-2.35,2.48c-3.83,1.57-7.75-1-10.82-3.07-3.45-2.33-7.22-4.79-8.49-9s-.36-8.51,1-12.51c1.72-5.12,4-10,5-15.33,1-5.6,1-11.29,1.25-17C1286.17,615.35,1282.05,615.36,1281.93,618Z"/><path class="cls-7" d="M1263.54,809.63q6.7-.95,13.3-2.44a2.09,2.09,0,0,0,1.44-2.54,2.12,2.12,0,0,0-2.54-1.44c-4.39,1-8.83,1.82-13.29,2.45a2.07,2.07,0,0,0-1.44,2.53,2.12,2.12,0,0,0,2.53,1.44Z"/><path class="cls-7" d="M1263.89,803.93a1.35,1.35,0,0,1,.33,0s-.41-.12-.07,0,.08.06,0,0l.29.17.28.19c-.15-.1-.18-.15,0,0l.59.51,2.58,2.22,5.07,4.38a2.06,2.06,0,1,0,2.91-2.92l-5.54-4.77c-.9-.78-1.79-1.57-2.7-2.33a5,5,0,0,0-3.68-1.52,2.11,2.11,0,0,0-2.06,2.06c.05,1,.92,2.19,2.06,2.06Z"/><path class="cls-7" d="M1261.71,817.24l14.55-1.51a2.11,2.11,0,0,0,2.06-2.06,2.08,2.08,0,0,0-2.06-2.06l-14.55,1.51a2.12,2.12,0,0,0-2.06,2.06,2.07,2.07,0,0,0,2.06,2.06Z"/><path class="cls-7" d="M1265.68,812.32l8.93,9.43a2.06,2.06,0,1,0,2.91-2.91l-8.93-9.43a2.06,2.06,0,0,0-2.91,0,2.1,2.1,0,0,0,0,2.91Z"/><path class="cls-7" d="M1259.7,826.65l16.23-.62A2.11,2.11,0,0,0,1278,824a2.07,2.07,0,0,0-2.06-2.06l-16.23.62a2.1,2.1,0,0,0-2.06,2.06,2.07,2.07,0,0,0,2.06,2.06Z"/><path class="cls-7" d="M1259.71,819.89a67,67,0,0,0,16.18,10.34,2.12,2.12,0,0,0,2.82-.74,2.07,2.07,0,0,0-.74-2.81,63.51,63.51,0,0,1-15.35-9.7,2.1,2.1,0,0,0-2.91,0,2.06,2.06,0,0,0,0,2.91Z"/><path class="cls-7" d="M1260.09,835.26l14.61-.57a2.06,2.06,0,1,0,0-4.12l-14.61.57a2.06,2.06,0,0,0,0,4.12Z"/><path class="cls-7" d="M1263.36,829.93a39.13,39.13,0,0,0,12.17,9.63,2.06,2.06,0,1,0,2.08-3.56c-1.1-.56-2.18-1.17-3.23-1.84-.53-.34-1.06-.69-1.57-1.06-.25-.17-.49-.35-.73-.53l-.4-.3-.13-.1a37.25,37.25,0,0,1-5.28-5.15,2.06,2.06,0,0,0-2.91,0,2.11,2.11,0,0,0,0,2.91Z"/><path class="cls-7" d="M1347.67,638.46a15.21,15.21,0,0,1-13.63,1.6,2.06,2.06,0,1,0-1.1,4,19.26,19.26,0,0,0,16.81-2,2.06,2.06,0,0,0-2.08-3.56Z"/><path class="cls-7" d="M1361.6,577.66q-.75.14-1.5.24l.55-.07a34.34,34.34,0,0,1-5.64.29,2.08,2.08,0,0,0-2.06,2.06,2.1,2.1,0,0,0,2.06,2.06,37.32,37.32,0,0,0,7.68-.6,2.07,2.07,0,0,0,1.44-2.54,2.12,2.12,0,0,0-2.53-1.44Z"/><path class="cls-7" d="M1342.66,577.8A35.78,35.78,0,0,1,1327,569c-1.91-1.85-4.82,1.06-2.92,2.91a40.06,40.06,0,0,0,17.53,9.86c2.56.69,3.66-3.29,1.09-4Z"/><path class="cls-10" d="M1378.77,115c8.22-1.8,17.1.37,24.06,4.8s12.1,10.93,15.77,17.95c2.52,4.83,4.42,10.12,4,15.46-.34,4.14-2.06,8.06-3.77,11.91l-12.87,29.07c-2.18,4.92-4.54,10.07-9.09,13.33s-12,3.75-15.58-.43l-56.8-9.62c-10.44-3.56-20.59-8.89-27.07-17.23-4-5.13-6.39-11.13-8.74-17.05-2.16-5.41-4.33-10.89-4.85-16.63a58.33,58.33,0,0,1,.19-9.71c.39-5,1.28-10.85,5.93-13.55,2.55-1.49,5.72-1.67,8.73-1.94a103.59,103.59,0,0,0,27.74-6.4c8.72-3.34,17.18-7.92,26.6-8.56a32.27,32.27,0,0,1,23.32,7.83"/><path class="cls-7" d="M1379.31,117a30.47,30.47,0,0,1,21.24,3.83,42.08,42.08,0,0,1,14.62,15,40.6,40.6,0,0,1,4.72,10.65,20.22,20.22,0,0,1-.45,11.58,123,123,0,0,1-5,11.91l-5.33,12c-1.75,3.94-3.48,7.89-5.24,11.83a38.15,38.15,0,0,1-5,9,13.6,13.6,0,0,1-7.49,4.88c-2.5.57-5.51.44-7.62-1.17-.84-.64-1.36-1.38-2.42-1.56l-2.25-.38-8.69-1.47L1345.27,199l-18.8-3.18a37.44,37.44,0,0,1-9.15-3.27c-6.43-2.94-12.56-6.79-17.22-12.17-5-5.79-7.76-13.23-10.5-20.28a56.77,56.77,0,0,1-3.58-12.14,52,52,0,0,1,.14-12.21c.27-2.84.76-5.88,2.38-8.3,2-3,5.5-3.52,8.82-3.82a112.54,112.54,0,0,0,24.32-4.74c7.66-2.46,14.82-6.23,22.51-8.59,7.3-2.23,14.77-2.48,22,.23a28.55,28.55,0,0,1,8.71,5.24c2,1.75,4.9-1.15,2.91-2.91a35,35,0,0,0-30.61-7.6c-5.61,1.2-10.88,3.51-16.15,5.71a117.56,117.56,0,0,1-16.73,5.75,124.53,124.53,0,0,1-17.8,2.87,18,18,0,0,0-7.91,2.2,12.27,12.27,0,0,0-4.55,5.35c-2.06,4.56-2.25,10-2.39,14.9-.18,6.21,1.3,12,3.48,17.83a124.25,124.25,0,0,0,6.92,16,41.62,41.62,0,0,0,10.08,12.2,59.81,59.81,0,0,0,13.3,8.13q3.8,1.71,7.73,3.09a8.16,8.16,0,0,0,1.17.33c9.2,1.8,18.51,3.14,27.76,4.7l28.15,4.77.5.09-.91-.53c2.71,3,7,4,10.87,3.46a17.14,17.14,0,0,0,11-6.24c3-3.6,4.83-7.89,6.71-12.13l7-15.9c2.29-5.16,4.7-10.29,6.82-15.52s3-10.28,1.84-15.74a43.46,43.46,0,0,0-6.12-13.9,48.76,48.76,0,0,0-9-10.69c-8.37-7.33-19.74-11.2-30.79-8.87-2.59.54-1.5,4.51,1.09,4Z"/><path class="cls-7" d="M1372.93,120.6c.2.81.36,1.63.49,2.46.1.63-.05-.41,0,.22l.06.58c0,.42.07.83.09,1.25,0,.81.05,1.61,0,2.42,0,.38,0,.77-.07,1.15l-.06.58c0,.08-.11.86,0,.41a2.25,2.25,0,0,0,.2,1.59,2.11,2.11,0,0,0,1.23.94,2.07,2.07,0,0,0,2.54-1.43,29.71,29.71,0,0,0-.51-11.27,2.06,2.06,0,1,0-4,1.1Z"/><path class="cls-11" d="M1374.26,205.57c-1.14,5.08-2.29,10.24-1.9,15.42s2.51,10.46,6.88,13.74c1.73,1.3,3.78,2.26,5.27,3.8,2.2,2.27,2.85,5.45,3.25,8.47a84.6,84.6,0,0,1-1.26,29.29c-1.11,5-2.85,10.17-7,13.57-4.78,3.94-11.66,4.63-18.06,5q-15.11.87-30.24.73a41.25,41.25,0,0,1-10.42-1,36.24,36.24,0,0,1-9.57-4.59c-6.7-4.19-13.3-9.29-16-16.33-1.45-3.8-1.65-7.91-1.82-11.94-.42-9.49-.54-19.89,5.86-27.34,3.89-4.53,9.67-7.29,14.44-11.06a35.7,35.7,0,0,0,13.33-22.85"/><path class="cls-7" d="M1372.28,205c-2,8.75-3.79,18.5,1.34,26.56a17.92,17.92,0,0,0,4.06,4.53c1.63,1.27,3.59,2.17,5.09,3.59,2.92,2.78,3.06,7.64,3.37,11.38.78,9.46.2,19.5-2.66,28.6-1.14,3.61-3,7.16-6.22,9.32s-7.41,3.05-11.34,3.46c-9.83,1-19.85,1.07-29.72,1.09-4.75,0-9.75.3-14.39-.85-4.27-1.07-8.09-3.51-11.72-5.92a43.81,43.81,0,0,1-9.31-7.91,21.15,21.15,0,0,1-4.86-11.15,95.43,95.43,0,0,1-.59-12.65,41.54,41.54,0,0,1,1.46-11.74,21.13,21.13,0,0,1,6.2-9.77c3.11-2.77,6.8-4.81,10.16-7.24a39.3,39.3,0,0,0,14.56-19.49,35.11,35.11,0,0,0,1.35-5.82,2.12,2.12,0,0,0-1.44-2.53,2.06,2.06,0,0,0-2.53,1.43,34.17,34.17,0,0,1-11.87,21.18c-3.3,2.79-7.11,4.86-10.55,7.46a26.29,26.29,0,0,0-8.37,9.82c-3.59,7.76-3.27,16.57-2.85,24.91.24,4.73.81,9.43,3.06,13.67a31.59,31.59,0,0,0,8.19,9.49,71.16,71.16,0,0,0,11.14,7.45,31.53,31.53,0,0,0,14,3.69c10.54.44,21.18,0,31.7-.55,8.47-.45,18.25-1,23.93-8.26a28.79,28.79,0,0,0,5-11.55,87.44,87.44,0,0,0,2.06-15.28,85.32,85.32,0,0,0-.71-15.49c-.61-4.42-2-8.3-5.73-11a36.87,36.87,0,0,1-5.06-3.7,15.28,15.28,0,0,1-3.12-4.76c-1.73-4.16-1.76-8.8-1.12-13.2.38-2.58,1-5.13,1.53-7.67s-3.39-3.69-4-1.1Z"/><path class="cls-11" d="M1320,154.56a54.33,54.33,0,0,0,5.69,42.57c5.45,9,14.9,17.17,26.08,16.91,4.89-.12,9.57-1.86,13.84-4,16.59-8.56,28.21-25,29.64-42.43.39-4.83,0-9.82-2.1-14.25-2.75-5.73-8.22-10-14.16-13.08-13.48-6.94-30.66-8.13-44.48-1.77-7.08,3.26-14,8.82-14.51,16.1Z"/><path class="cls-7" d="M1318,154c-4.6,17.14-1.36,36.6,10.35,50.27,5.25,6.13,12.4,10.85,20.56,11.7,8.81.92,17.61-3.44,24.61-8.41,12.93-9.18,22.23-23.52,23.73-39.47a30.54,30.54,0,0,0-1.51-13.91,25.83,25.83,0,0,0-7.33-10.14c-6.53-5.64-15-9.17-23.4-10.77a53.39,53.39,0,0,0-26.12,1.28c-7.44,2.37-15.84,6.88-19.39,14.23a16.09,16.09,0,0,0-1.57,5.77c-.23,2.64,3.89,2.63,4.12,0,.61-7.19,8.09-11.95,14-14.57a46.9,46.9,0,0,1,23.24-3.39,50.57,50.57,0,0,1,22.26,7.5,27.6,27.6,0,0,1,8.24,7.61,21.33,21.33,0,0,1,3.46,11.43c.48,14.65-7.31,28.71-18.23,38-5.79,4.95-13.14,9.44-20.78,10.59-7.36,1.1-14.43-2.1-19.77-7-11.69-10.76-16.29-28.21-13.85-43.61.33-2,.77-4.05,1.3-6C1322.64,152.54,1318.67,151.45,1318,154Z"/><path class="cls-12" d="M1269.38,672.51c3,10.82-1.48,21.73-4.37,32-1.51,5.4-2.74,11-2.58,16.66a31.84,31.84,0,0,0,4.22,14.83c2.84,5,6.67,9.42,10.45,13.74,1.75,2,4.65-.92,2.91-2.91-6.47-7.41-13.18-15.33-13.46-25.66-.31-11,4.75-21.19,6.9-31.77,1.21-6,1.56-12.11-.1-18-.71-2.55-4.69-1.47-4,1.09Z"/><path class="cls-12" d="M1241.56,770.85c2.33,6.52,6.32,12.21,9.21,18.46a22.46,22.46,0,0,1,.78,19.61c-1.22,3.48-2.73,6.85-3.79,10.39a32.44,32.44,0,0,0-1.4,10.54,27.6,27.6,0,0,0,8,18.67,26.68,26.68,0,0,0,20.8,7.55,2.12,2.12,0,0,0,2.06-2.06,2.08,2.08,0,0,0-2.06-2.06,22.61,22.61,0,0,1-17.34-5.83,23.36,23.36,0,0,1-7.32-16.87c-.13-7.18,3.12-13.41,5.34-20a29.06,29.06,0,0,0,1.74-10.06,27.73,27.73,0,0,0-2.15-9.45c-2.79-6.89-7.35-12.93-9.85-19.94-.89-2.48-4.87-1.41-4,1.1Z"/><path class="cls-13" d="M1291.16,726.31a20.79,20.79,0,0,1,.55,2.46c0,.25,0,.26,0,0,0,.13,0,.26,0,.39l.06.58c0,.42,0,.84,0,1.26s0,.84,0,1.26c0,.19,0,.39,0,.58s-.08.7,0,.5-.07.42-.08.49-.07.38-.11.57c-.09.45-.2.89-.33,1.33a2.09,2.09,0,0,0,1.44,2.53,2.11,2.11,0,0,0,2.54-1.44,21.31,21.31,0,0,0-.06-11.64,2.06,2.06,0,1,0-4,1.1Z"/><path class="cls-13" d="M1253.77,759.61c-2.07,2.42-4.23,5.13-4.22,8.49a2.06,2.06,0,1,0,4.12,0,6.81,6.81,0,0,1,0-.78l-.08.54a7.51,7.51,0,0,1,.43-1.61c.08-.2,0-.14-.08.18a2,2,0,0,1,.1-.21c.06-.14.13-.27.2-.41s.29-.5.44-.75.32-.49.49-.73l.28-.38c.24-.33-.3.38,0,0s.78-1,1.17-1.42a2.14,2.14,0,0,0,.61-1.45,2.07,2.07,0,0,0-3.52-1.46Z"/><path class="cls-11" d="M1214.14,315.38l.2-1.05,1.91-4.39s9.42-10.2,14.09-14.53a24.17,24.17,0,0,1,4-3c-13.08-6.35-23.76-17-29.52-29.54-1.77,2-3.49,4-5.1,6.09-13.66,17.79-20.72,39.36-23.28,61s-.81,43.57,1.83,65.23c.58,4.82,1.2,9.81-.4,14.44-1.41,4.1-4.44,7.53-7,11.1a63.84,63.84,0,0,0-7.69,13.95c-1.76,4.44-3,9.3-1.62,13.85s6.1,8.51,11.18,7.88c7.06-.88,11.51-9.64,18.56-8.73a19.44,19.44,0,0,0,3,.43c3-.09,4.86-3.42,4.54-6.21s-2-5.26-3-7.91a16.93,16.93,0,0,1,1.41-14.86c4.08-.61,3.44,6.29,6.71,8.63,3.49,2.5,8.07-1.94,9-5.91a23.65,23.65,0,0,0-6.74-22.19c-1.58-1.53-3.42-2.92-4.37-4.84-1.14-2.3-.82-5-.45-7.47,2.26-15.27,5-30.47,7.84-45.66q1.77-9.56,3.58-19.08c1.12-5.85,2.83-11.95-.4-17.53"/><path class="cls-7" d="M1216.12,315.92a6.21,6.21,0,0,0,.2-1s-.32.72-.1.22l.61-1.41c.08-.19,1.22-2.73,1.19-2.74s-.58.65-.07.13c.2-.2.38-.41.58-.62l2.31-2.47q3.26-3.46,6.56-6.85a42.94,42.94,0,0,1,7.93-6.95,2.08,2.08,0,0,0,0-3.56,61.13,61.13,0,0,1-28.78-28.8,2.07,2.07,0,0,0-3.24-.42c-12.4,13.93-20.75,30.71-25.35,48.74-4.92,19.26-5.57,39.33-4.31,59.09.32,5.16.78,10.32,1.31,15.46s1.29,10,1.69,15.07a25.94,25.94,0,0,1-.22,7.15,18.29,18.29,0,0,1-2.63,6.2c-2.46,3.87-5.5,7.32-7.87,11.25a58.59,58.59,0,0,0-5.94,13c-1.34,4.39-1.78,9.29.2,13.56a13.43,13.43,0,0,0,9,7.39c3.73.78,7.24-.47,10.31-2.55,2.63-1.77,5-4.15,7.92-5.43A7.28,7.28,0,0,1,1192,450c2.1.39,4.06.35,5.83-1,3.39-2.53,3.6-6.95,2.13-10.6a64.4,64.4,0,0,1-2.66-6.23,14.81,14.81,0,0,1-.46-6.07,15.46,15.46,0,0,1,2.1-5.85l-1.77,1,.58,0c.36,0-.25,0,.08,0,.09,0,0,0,.16.13a1.18,1.18,0,0,1,.3.43c.13.23.37.69.41.79a41.25,41.25,0,0,0,1.94,4.59,6.59,6.59,0,0,0,4.36,3.31,7.36,7.36,0,0,0,5.93-1.84c3.61-2.92,4.66-7.58,4.62-12a25.88,25.88,0,0,0-3.92-13.38,26.61,26.61,0,0,0-4.46-5.4c-1.74-1.62-3.73-3.13-4.06-5.64s.37-5.36.76-7.9q.67-4.38,1.4-8.76c1.9-11.6,4-23.16,6.17-34.71,1.19-6.44,2.36-12.88,3.64-19.29,1.18-5.91,2.14-11.92-.94-17.44-1.29-2.32-4.85-.24-3.56,2.08,1.66,3,1.8,6.29,1.37,9.61-.47,3.6-1.33,7.17-2,10.73q-2.22,11.7-4.35,23.41c-1.42,7.76-2.81,15.52-4.1,23.3q-1,5.83-1.85,11.68c-.53,3.52-1.32,7.24.19,10.62,1.37,3.05,4.39,4.89,6.49,7.37a21.62,21.62,0,0,1,4.17,7.7c1.41,4.64,2,12-2.59,15.2-1.92,1.32-3.2.39-4.07-1.38s-1.29-4-2.66-5.65a4.54,4.54,0,0,0-2.55-1.57,4.7,4.7,0,0,0-1.45-.07c-1.31.12-1.84,1-2.39,2.1a19.25,19.25,0,0,0-2.16,9.68c.17,3.55,1.49,6.52,3,9.69,1,2.09,2.09,5.13,0,6.95-.88.76-1.82.55-2.9.35a11.64,11.64,0,0,0-4.63,0,16.93,16.93,0,0,0-6.46,3.32c-3.75,2.77-8.14,7-13.13,4.55a9.64,9.64,0,0,1-5.07-6.12c-.9-3.39-.13-7,1-10.21,2.28-6.72,6.07-12.69,10.32-18.32a32.69,32.69,0,0,0,5.18-8.85,26.48,26.48,0,0,0,.92-10.88c-.67-7.75-1.81-15.45-2.46-23.2s-1-15.39-1.07-23.09c-.07-28.28,5.61-57.26,22.43-80.58a100.82,100.82,0,0,1,6.59-8.13L1203,264c6.13,13.22,17.22,23.9,30.26,30.28v-3.56c-4.85,3-8.73,7.52-12.63,11.61-1.53,1.59-3,3.2-4.55,4.81a9.25,9.25,0,0,0-1.78,2.22,24,24,0,0,0-2.14,5.51c-.5,2.59,3.47,3.7,4,1.09Z"/><path class="cls-4" d="M1312.64,221.58c-16.69,0-32.17-.21-48.86-.16-4.82,0-9.71,0-14.36,1.2a57.7,57.7,0,0,0-12.4,5.26c-18.28,9.5-37,19.36-50.18,34.42a5,5,0,0,0-1.59,3.12,4.88,4.88,0,0,0,.91,2.36,115.4,115.4,0,0,0,38.1,37.89c6.36-4.18,22.51-18.43,22.51-18.43-4.37,40.44,12.15,78.52,3.77,118.42-1.4,6.68-3.3,13.34-3.28,20.14s2.23,14,7.76,18.46a32.14,32.14,0,0,0,10,5c16.74,5.67,34.88,6.45,52.69,7.17,23.53.95,47.34,1.89,70.41-2.44,7.76-1.45,16-3.92,20.43-10,3-4.15,3.67-9.32,4.24-14.28,1.57-13.63-3.85-23.37-5.68-37-1.41-10.49-3-17.61-4.05-28.13-1.31-13.15,6.08-33.51,8.15-46.58.07-.43.14-.86.2-1.29l1,1c11.24,2.12,22.41-3.17,32.46-8.28,4.49-2.28,9-4.59,12.88-7.7a33,33,0,0,0,11.43-17.69,3.41,3.41,0,0,0,.06-1.95,4.36,4.36,0,0,0-1.17-1.45c-5.42-5.17-8-12.25-12.13-18.36-7.07-10.53-18.56-18-30.88-23s-25.58-7.49-38.73-10l-12.7-2.45c-3.15,13.09,2.38,26.71-23,30.8s-32.62-32.82-36.19-36.34"/><path class="cls-7" d="M1312.64,219.52c-14.61,0-29.22-.16-43.83-.17-7.12,0-14.55-.4-21.45,1.71-6.42,2-12.38,5.53-18.3,8.66-11.35,6-22.59,12.37-32.58,20.5-2.45,2-4.81,4.1-7,6.33-1.06,1.05-2.1,2.13-3.1,3.24a12.71,12.71,0,0,0-2.78,3.82c-1.17,3.07,1.2,5.89,2.8,8.32,1.7,2.59,3.52,5.09,5.43,7.54a119.2,119.2,0,0,0,31.44,28,2.06,2.06,0,0,0,2.08,0,153.5,153.5,0,0,0,13.92-11q4.54-3.84,9-7.75l-3.51-1.46c-3.28,31,5.88,61.33,6.17,92.22a120.5,120.5,0,0,1-1.82,23.07c-1.44,7.85-4,15.63-3.86,23.7.11,6.46,2.09,13.07,6.59,17.84,5,5.33,12.86,7.5,19.75,9.28,15.42,4,31.47,4.56,47.31,5.2,16.54.67,33.15,1.3,49.68,0a158.73,158.73,0,0,0,23.58-3.3c6.11-1.41,12.64-3.71,16.91-8.54,4.76-5.38,5.81-13.16,6.1-20.09s-1.28-13.76-3-20.47c-.93-3.61-1.86-7.22-2.51-10.9s-1.1-7.51-1.7-11.25c-1.11-7-2.58-14.07-2.88-21.15-.26-6.12.91-12.24,2.21-18.19,1.4-6.39,3.13-12.7,4.59-19.08.63-2.75,1.16-5.51,1.6-8.3l-3.44.91a5.81,5.81,0,0,0,1.91,1.5,17.37,17.37,0,0,0,5.14.54,37.82,37.82,0,0,0,10.15-1.27c6.65-1.7,12.89-4.77,19-7.88,5.79-2.94,11.6-6,16.17-10.72a34.77,34.77,0,0,0,8.81-15.57,5.18,5.18,0,0,0-.46-4.38,42.36,42.36,0,0,0-3-3.26,47.19,47.19,0,0,1-5-7.58c-3-5.32-6-10.5-10.19-15-8.47-9-19.74-14.9-31.28-18.94-15.16-5.31-31.22-7.77-47-10.81a2.1,2.1,0,0,0-2.53,1.44c-1.46,6.17-.87,12.56-3,18.45a13.58,13.58,0,0,1-5.22,6.47c-3.93,2.58-8.73,3.75-13.31,4.44-14.5,2.21-23-11.11-28.14-22.6-1.16-2.61-2.18-5.26-3.32-8-.72-1.73-1.38-3.82-2.73-5.19-1.86-1.89-4.77,1-2.91,2.92.4.4-.17-.41.18.24.18.34.37.66.54,1s.36.74.52,1.12l.16.37.33.79c1.09,2.65,2.13,5.31,3.28,7.94,2.74,6.31,6.06,12.55,10.84,17.56,5.14,5.38,12.06,8.7,19.59,8.17,8.26-.59,18.42-3.51,22.81-11.19,3.72-6.49,2.74-14.41,4.39-21.38l-2.53,1.43c13.14,2.54,26.45,4.73,39.34,8.4,11.35,3.24,22.62,7.86,31.82,15.42a49.87,49.87,0,0,1,10.9,12.23c3,4.83,5.38,10,9,14.5.86,1.07,1.82,2,2.77,3,.42.43.42.54.3,1.13a20.39,20.39,0,0,1-.61,2.16,30.36,30.36,0,0,1-3.76,7.59c-3.34,5-8,8.49-13.19,11.37a124.41,124.41,0,0,1-19.11,9,41.44,41.44,0,0,1-10.47,2.39,29.83,29.83,0,0,1-5.09,0,4.43,4.43,0,0,0-1.24-.15c-.4-.12-.37,0,.1.35l-.11-.11c-.3-.24-.57-.55-.85-.82-1-1-3.19-.69-3.44.91-1.92,12.27-6.1,24.07-7.85,36.37a60.93,60.93,0,0,0-.73,8.84,75.59,75.59,0,0,0,.94,10c1,7.15,2.28,14.23,3.26,21.37,1,6.93,3,13.58,4.5,20.38a52.63,52.63,0,0,1,.62,20.73,20.54,20.54,0,0,1-3.57,9.34,19,19,0,0,1-7.07,5.32c-6.18,2.94-13.38,3.9-20.1,4.81-15.86,2.13-31.94,2.07-47.91,1.57-15.66-.5-31.56-.7-47.08-3.12a97.58,97.58,0,0,1-22.13-5.7,21.1,21.1,0,0,1-8.36-5.75,20.24,20.24,0,0,1-4-8.28c-1.7-7.09-.06-14.41,1.51-21.37a134.93,134.93,0,0,0,3.29-22.54c1.57-30.11-7.37-59.59-6.72-89.68.09-3.75.32-7.5.72-11.23.2-1.92-2.32-2.52-3.52-1.46q-4.33,3.83-8.74,7.54a148.86,148.86,0,0,1-13.35,10.57h2.08a116.23,116.23,0,0,1-27.08-23,102.26,102.26,0,0,1-10.28-14.12,2.68,2.68,0,0,1-.6-1.47c0-.55.62-1.11,1-1.51,1-1.2,2.11-2.34,3.21-3.46,2.1-2.14,4.31-4.17,6.6-6.1,9.38-7.88,20.1-14,30.87-19.78,5.56-3,11.14-6.29,17-8.54,6.37-2.44,13-2.39,19.74-2.41,15.64,0,31.27.22,46.9.17,2.65,0,2.65-4.12,0-4.12Z"/><path class="cls-11" d="M1399.56,279.41a15.65,15.65,0,0,0-1.12,14.2c1.78,4,5,6.74,8.14,9.74s5.13,6.09,9.11,8c1.8.87,3.74,1.47,5.47,2.46,5.91,3.37,7.93,10.28,9.47,16.53q2.65,10.84,5.32,21.69c2.6,10.58,5.27,21.33,11,30.78s15.18,17.61,26.74,19.67c4.94.88,9.57-2.6,12.52-6,5.63-6.52,6.91-15.33,5.28-23.38s-5.88-15.49-10.48-22.61c-4.46-6.89-9.3-13.61-13-20.85-4.34-8.5-7-17.49-9.19-26.61"/><path class="cls-7" d="M1397.78,278.37a18.46,18.46,0,0,0-2.17,13.27c1,4.43,4.05,7.94,7.24,11,1.61,1.54,3.21,3.07,4.73,4.7a34.32,34.32,0,0,0,4.63,4.31c3.43,2.52,7.86,3.07,10.84,6.28,2.56,2.76,3.84,6.47,4.83,10,1.31,4.71,2.38,9.5,3.54,14.25,2.36,9.6,4.39,19.38,7.74,28.69,3,8.38,7.28,16.34,13.7,22.62a42.75,42.75,0,0,0,10,7.37c3.6,1.88,7.9,3.62,12,3.78,4.4.17,8.47-2.38,11.49-5.37a26.32,26.32,0,0,0,6.61-11.12c2.62-8.81.65-18-3.08-26.17-4.1-9-10.18-16.88-15.4-25.21a95.5,95.5,0,0,1-7.08-13.28,113.41,113.41,0,0,1-4.75-13.91c-.66-2.37-1.27-4.75-1.85-7.14-.63-2.58-4.6-1.49-4,1.09,2.24,9.24,5,18.39,9.28,26.9s10.06,16.07,15,24.13c4.6,7.46,8.84,15.76,8.91,24.73.05,7.78-3.37,16.07-10.44,20a8.71,8.71,0,0,1-5.41,1.19,27.28,27.28,0,0,1-5.6-1.51,35.14,35.14,0,0,1-9.93-5.72,49.66,49.66,0,0,1-14.1-19.57c-3.59-8.51-5.57-17.61-7.77-26.55l-3.66-14.94a67.38,67.38,0,0,0-3.45-11.28,18.91,18.91,0,0,0-7.09-8.61,61.3,61.3,0,0,0-5.94-2.73,17.16,17.16,0,0,1-4.64-3.48c-1.42-1.43-2.74-3-4.2-4.36s-3.14-2.92-4.57-4.51c-2.81-3.14-4.48-6.95-3.93-11.22a15,15,0,0,1,1.95-5.57c1.32-2.3-2.24-4.38-3.56-2.08Z"/><path class="cls-7" d="M1356.5,119.83a53,53,0,0,0-25.31,2.46c-7.72,2.8-15.61,8.73-24.25,7.16a2.12,2.12,0,0,0-2.53,1.44,2.08,2.08,0,0,0,1.44,2.54c9.07,1.65,16.68-3.24,24.74-6.51a48.61,48.61,0,0,1,24.82-3.12,2.13,2.13,0,0,0,2.53-1.44,2.07,2.07,0,0,0-1.44-2.53Z"/><path class="cls-7" d="M1402.16,147.25a59.35,59.35,0,0,1-2.46,33.24,2.07,2.07,0,0,0,1.44,2.53,2.09,2.09,0,0,0,2.53-1.43,63.35,63.35,0,0,0,2.46-35.44c-.56-2.58-4.53-1.49-4,1.1Z"/><path class="cls-7" d="M1309.76,155.56a9.38,9.38,0,0,0-4.28.07,11.84,11.84,0,0,0-3.22,1.56c-.43.27-.85.55-1.3.79l-.36.18c.18-.07.16-.07-.07,0a5,5,0,0,1-.78.21c.26,0-.49,0-.57,0-.26,0-.3,0-.13,0l-.44-.09a11.55,11.55,0,0,1-1.72-.57,2.07,2.07,0,0,0-2.53,1.44,2.12,2.12,0,0,0,1.44,2.53,9.5,9.5,0,0,0,3.82.82,8.11,8.11,0,0,0,3.68-1.12,29.88,29.88,0,0,1,2.72-1.61c-.24.1.47-.15.56-.17s.8-.15.58-.13a5.63,5.63,0,0,1,.92,0c.15,0,.3,0,.45,0-.17,0-.12,0,.13,0a2.06,2.06,0,1,0,1.1-4Z"/><path class="cls-7" d="M1358.28,210.7a80.39,80.39,0,0,1-15.2,2.8c-3.06.19-6.46.09-9-1.84a11.17,11.17,0,0,1-2.75-3.21c-.4-.64-.75-1.3-1.1-2a5.89,5.89,0,0,1-.73-1.6l-.28,1,.11-.2-.74.74.22-.1-1.59.2c.53.08,1.25.91,1.67,1.33.63.64,1.2,1.33,1.76,2a23.89,23.89,0,0,0,3.91,3.94,18.2,18.2,0,0,0,10.91,3.54c2.65,0,2.65-4.12,0-4.12a14.48,14.48,0,0,1-11.42-5.69,18.71,18.71,0,0,0-4.73-4.62,2.68,2.68,0,0,0-3.23.26,3.08,3.08,0,0,0-.32,3.5c1.78,4,4.24,7.91,8.4,9.69s8.95,1.37,13.35.72a114.29,114.29,0,0,0,11.85-2.46c2.56-.66,1.48-4.64-1.09-4Z"/><path class="cls-7" d="M1168.91,438.47a7,7,0,0,1-.45,2.42,17.59,17.59,0,0,0-.71,2.77,7.62,7.62,0,0,0,1.44,5.52,19.66,19.66,0,0,0,3.87,3.86c1.77,1.4,4,2.75,6.33,1.92a2.11,2.11,0,0,0,1.43-2.53,2.06,2.06,0,0,0-2.53-1.44,3,3,0,0,0-.4.12c.2,0-.36-.06-.08,0a2.21,2.21,0,0,1-.84-.33,10.18,10.18,0,0,1-1.7-1.21c-.58-.49-1.15-1-1.69-1.53a7.21,7.21,0,0,1-1.19-1.46,2.71,2.71,0,0,1-.21-.37s-.26-.58-.14-.26a4.35,4.35,0,0,1-.27-1c0,.23,0,0,0-.08s0-.46,0-.7c0,.22,0-.09,0-.14s.09-.38.14-.57a17,17,0,0,0,1-5,2.1,2.1,0,0,0-2.06-2.06,2.08,2.08,0,0,0-2.06,2.06Z"/><path class="cls-7" d="M1176.41,430.57l-.68,5.67a21.55,21.55,0,0,0-.27,5.61c.46,3.45,2.87,6,5.25,8.37,1.89,1.86,4.81-1.05,2.92-2.91s-4.05-3.82-4.16-6.55a31.91,31.91,0,0,1,.42-4.87l.64-5.32a2.08,2.08,0,0,0-2.06-2.06,2.1,2.1,0,0,0-2.06,2.06Z"/><path class="cls-7" d="M1182.88,424.37l-.19,6.92c-.07,2.38-.16,4.67.87,6.88a36.4,36.4,0,0,0,3.38,5.31,32.81,32.81,0,0,0,4.35,5.12c1.94,1.81,4.86-1.1,2.92-2.91a28,28,0,0,1-3.82-4.45,34.86,34.86,0,0,1-3.1-4.81c-.83-1.7-.52-3.74-.47-5.57l.18-6.49c.07-2.65-4-2.65-4.12,0Z"/><path class="cls-11" d="M1474.86,372.49c-4.26-23.71-19.49-44.38-28.69-66.87a24.4,24.4,0,0,1-2.06-7.4c-.23-3.61,1.06-7.15,1.49-10.75a23.54,23.54,0,0,0-5.15-17.44,8.13,8.13,0,0,0-2.62-2.29,12,12,0,0,0-3-.79c-3.41-.63-9.36-1.6-11.48-4.36a15.35,15.35,0,0,1-2.22-5.55,62,62,0,0,0-7.23-16.4,5.11,5.11,0,0,0-1.44-1.66c-2.19-1.41-5.32.89-5.53,3.35s1.34,4.71,2.56,6.9a30.7,30.7,0,0,1,3.86,13.13c-2.9.31-5.11-2.24-6.7-4.49l-5.72-8.14c-1.48-2.1-3.92-4.5-6.41-3.52a3.56,3.56,0,0,0-2.09,3.34,8.53,8.53,0,0,0,1.22,3.89,43.85,43.85,0,0,0,5.85,8.54c2.46,2.82,5.48,5.82,5.19,9.44"/><path class="cls-7" d="M1476.85,371.94c-2.32-12.67-7.69-24.51-13.48-35.93-2.88-5.67-5.88-11.27-8.73-17-1.49-2.95-2.94-5.93-4.3-8.95a67.66,67.66,0,0,1-3.58-8.89c-1-3.28-.48-6.32.2-9.61a29.57,29.57,0,0,0,.65-9.74,26.12,26.12,0,0,0-2.69-8.74c-1.31-2.54-3.17-5.51-5.71-7-2.31-1.34-5.33-1.39-7.9-2-2-.47-4.68-1-6.15-2.62a8.64,8.64,0,0,1-1.62-3.5c-.43-1.51-.83-3-1.32-4.54a66,66,0,0,0-4-9.38,50.32,50.32,0,0,0-2.78-4.83,5.55,5.55,0,0,0-3.9-2.74,6.32,6.32,0,0,0-6.63,5.2c-.59,3.7,2,6.8,3.49,9.91a28.5,28.5,0,0,1,2.85,10.7l2.06-2.06c-1.58.11-2.68-.8-3.69-1.92a46.33,46.33,0,0,1-3.52-4.81c-1.34-1.9-2.62-3.86-4-5.69a10.49,10.49,0,0,0-4.42-3.58,5.48,5.48,0,0,0-7.27,5.86,15,15,0,0,0,2.33,5.89,47,47,0,0,0,3.57,5.28c1.33,1.71,2.85,3.26,4.19,4.95,1.2,1.51,2.23,3.16,2.13,5.14-.13,2.65,4,2.64,4.12,0,.18-3.6-2-6.54-4.23-9.12a53.07,53.07,0,0,1-6.66-9.11c-.65-1.18-1.77-2.88-1.26-4.28s1.86-.8,2.72-.13a18.81,18.81,0,0,1,3.4,4.23l3.72,5.29c2.12,3,4.81,6.39,8.91,6.12a2.08,2.08,0,0,0,2.06-2.06,33.06,33.06,0,0,0-2-9.62,34.44,34.44,0,0,0-1.88-4.15,31.63,31.63,0,0,1-2.14-4,3.13,3.13,0,0,1,0-3c.38-.54,1.3-1.28,2-.92.32.17.58.7.77,1,.4.64.79,1.29,1.17,1.94.83,1.44,1.6,2.9,2.31,4.4a57.09,57.09,0,0,1,3.42,9.14c.74,2.62,1.36,5.53,3.41,7.48,3.48,3.29,8.75,3.55,13.17,4.55,2.85.64,4.5,3.58,5.75,6a21,21,0,0,1,2.26,7.86c.49,6.25-2.59,12.12-1.07,18.37a55.79,55.79,0,0,0,3.44,9c1.24,2.83,2.57,5.63,3.93,8.4,2.68,5.44,5.53,10.8,8.31,16.2,6.24,12.11,12.18,24.53,14.64,38a2.09,2.09,0,0,0,2.54,1.44,2.12,2.12,0,0,0,1.44-2.54Z"/><path class="cls-7" d="M1430.44,274.25a25.26,25.26,0,0,1,.46,9.41,26.3,26.3,0,0,1-1.14,4.73,22.64,22.64,0,0,1-.82,2.12,6,6,0,0,1-1,1.92l.91-.53c.44-.15.27.2.12-.06-.05-.1-.26-.23-.34-.33a3.51,3.51,0,0,1-.59-1,9.27,9.27,0,0,1-.53-2.33,40.21,40.21,0,0,1-.25-7.6h-4.12a28.31,28.31,0,0,1-.87,6.06,5.09,5.09,0,0,0-.33,1.4c.11.75-.29-.09.17.14a5.79,5.79,0,0,1-1.28-.87,4.55,4.55,0,0,1-1.94-3.68c0-1.75.15-3.5-.9-5a2.12,2.12,0,0,0-2.82-.74,2.08,2.08,0,0,0-.74,2.82,3.78,3.78,0,0,1,.35,2.49,8.44,8.44,0,0,0,.44,3.38,10.07,10.07,0,0,0,4.95,5.21,4,4,0,0,0,5.77-2.76,34.46,34.46,0,0,0,1.32-8.43c0-2.67-4-2.64-4.12,0a42.37,42.37,0,0,0,.08,6,20.44,20.44,0,0,0,.84,5,7.12,7.12,0,0,0,3,3.89,3.28,3.28,0,0,0,4.83-1.46,29.84,29.84,0,0,0,2.61-20.86c-.61-2.57-4.59-1.48-4,1.1Z"/><path class="cls-11" d="M1408.61,285.81a64.77,64.77,0,0,0,6.43-9.42,7.88,7.88,0,0,0,1.3-3.91,3.15,3.15,0,0,0-2.47-3.07,4.85,4.85,0,0,0-2.53.47,23.57,23.57,0,0,0-11.78,9.53"/><path class="cls-7" d="M1410.07,287.26a69.72,69.72,0,0,0,5.43-7.58c1.52-2.48,3.61-5.57,2.69-8.62a5.34,5.34,0,0,0-2.52-3.18,5.58,5.58,0,0,0-4.61-.09,27.91,27.91,0,0,0-7.12,3.86,23.94,23.94,0,0,0-6.16,6.72c-1.37,2.28,2.19,4.36,3.56,2.08a19.07,19.07,0,0,1,5-5.48,25.55,25.55,0,0,1,3.6-2.21c1-.5,2.39-1.37,3.5-1.32.07,0,.42.14.25,0,.1.06.3.24.24.16a1.28,1.28,0,0,1,.35,1.13,9.58,9.58,0,0,1-1.71,3.78,60.66,60.66,0,0,1-5.42,7.8,2.12,2.12,0,0,0,0,2.91,2.08,2.08,0,0,0,2.92,0Z"/><path class="cls-7" d="M1408.87,294.16a31.41,31.41,0,0,1,8.17,3.35c.59.32,1.18.66,1.74,1a10.37,10.37,0,0,1,1.34,1,7.66,7.66,0,0,1,2.24,2.89,2.09,2.09,0,0,0,2.82.74,2.12,2.12,0,0,0,.74-2.82c-1.33-2.82-3.93-4.81-6.6-6.28-1.3-.71-2.65-1.33-4-1.93a27,27,0,0,0-5.36-1.94,2.1,2.1,0,0,0-2.53,1.44,2.07,2.07,0,0,0,1.44,2.53Z"/><path class="cls-14" d="M1462.64,296.82c-4.25,5.32-8.41,9.18-14.89,12,0,0-3.81-5-3.1-14.06"/><path class="cls-7" d="M1461.18,295.36a48.55,48.55,0,0,1-6.51,6.86,33,33,0,0,1-8,4.84l2.82.74a10.07,10.07,0,0,1-.56-.88c-.2-.36-.39-.72-.56-1.09-.06-.12-.35-.82-.17-.36-.11-.28-.22-.55-.32-.83a23.37,23.37,0,0,1-1.21-9.86,2.07,2.07,0,0,0-2.06-2.06,2.09,2.09,0,0,0-2.05,2.06,26.47,26.47,0,0,0,1.35,11,15.93,15.93,0,0,0,2,4.14,2.13,2.13,0,0,0,2.81.74,40.93,40.93,0,0,0,15.3-12.35,2.11,2.11,0,0,0,0-2.91,2.07,2.07,0,0,0-2.91,0Z"/><path class="cls-7" d="M1246.69,290.23a22.07,22.07,0,0,0,6.85-12,2.58,2.58,0,0,0-5-1.37,19.3,19.3,0,0,1-.79,2.89,7.69,7.69,0,0,0-.28.72c0-.14.19-.45,0-.14l-.18.39q-.33.71-.72,1.38a14.54,14.54,0,0,1-.78,1.25c-.14.22-.3.44-.45.65,0,.06-.29.37-.06.09s-.07.08-.13.15a20.6,20.6,0,0,1-2.18,2.3,2.59,2.59,0,0,0,0,3.64,2.63,2.63,0,0,0,3.64,0Z"/><path class="cls-7" d="M1243.32,234.81a66.84,66.84,0,0,0,3.66,23.58,2.63,2.63,0,0,0,3.17,1.79,2.59,2.59,0,0,0,1.79-3.16,62.64,62.64,0,0,1-3.47-22.21c.09-3.32-5.06-3.32-5.15,0Z"/><path class="cls-7" d="M1431.79,251.09l-4.38,5.9a2.54,2.54,0,0,0-.26,2,2.6,2.6,0,0,0,1.18,1.54,2.64,2.64,0,0,0,2,.26l.62-.26a2.56,2.56,0,0,0,.92-.93l4.39-5.89a2.58,2.58,0,0,0-2.91-3.79l-.62.26a2.64,2.64,0,0,0-.92.93Z"/><polygon class="cls-15" points="1291.07 338.79 1317.14 348.17 1314.28 353.22 1335.74 345.53 1291.07 338.79"/><path class="cls-15" d="M1250.38,301.89s9.3,57.34,10.49,73.81,3.23,37.55-.95,43.5c0,0-3.66-50.23-5.41-60.78s-5.4-41.74-5.4-45.11-.56-15.23-.48-16.4c.16-2.35.64-1,.64-1Z"/><path class="cls-16" d="M1260.53,452.89c-7,25.1,1.71,51.27,14.53,72.94,6.63,11.2,14.41,21.66,22.24,32,3.93,5.22,7.88,10.42,11.72,15.7l1.34,1.84a10.48,10.48,0,0,0,1.31,1.92l.1.17a.67.67,0,0,1,0-.64c-.09-.15.75-.17-.18.07a8.62,8.62,0,0,0-1.78.93,9.37,9.37,0,0,0-4.25,5.77c-.66,2.25-.75,5-1.87,6.9a14.27,14.27,0,0,1-3,3,12.33,12.33,0,0,0-3,4.43c-1.45,3.5-2.22,7.34-3.23,11l-3.27,11.8c-.88,3.2,4.08,4.57,5,1.37,1.88-6.81,3.64-13.67,5.67-20.45a10.15,10.15,0,0,1,1.67-3.64c.93-1.14,2.23-1.92,3.23-3a13.26,13.26,0,0,0,3.08-6.65c.41-2,.65-4.37,1.9-5.55a15.19,15.19,0,0,1,2.51-1.44,4.89,4.89,0,0,0,2.59-3.77c.11-1.74-.79-3.07-1.76-4.43s-2-2.7-2.94-4q-2.84-3.86-5.72-7.67c-15.38-20.44-32-41.14-39.45-66-4-13.36-5.22-27.62-1.47-41.18.89-3.2-4.08-4.57-5-1.37Z"/><path class="cls-7" d="M1368.86,161.66c4.83-1,10.88-1.56,14.8,2.11a1.73,1.73,0,0,0,1.71.5c.54-.23.43-.84.06-1.18-4.78-4.49-11.69-4.53-17.73-3.24-1.51.33.14,2,1.16,1.81Z"/><path class="cls-7" d="M1352.41,156.52a12.4,12.4,0,0,0-3.32-3.45,14.9,14.9,0,0,0-5.67-2.06,23.5,23.5,0,0,0-10.87.54c-.59.18-.36.86-.06,1.18a1.76,1.76,0,0,0,1.72.5,20.9,20.9,0,0,1,8.94-.56,12,12,0,0,1,4.5,1.4,8.77,8.77,0,0,1,2.63,2.69,1.84,1.84,0,0,0,1.64.78.63.63,0,0,0,.49-1Z"/><path class="cls-7" d="M1375.2,168.68a5.53,5.53,0,0,1-2.1,5.67.58.58,0,0,1-.32.14.53.53,0,0,1-.4-.28,3.82,3.82,0,0,1-.53-3.24,4.18,4.18,0,0,1,2.26-2.53"/><path class="cls-7" d="M1373.21,169.23a4.21,4.21,0,0,1,.11.6l-.07-.55a5.74,5.74,0,0,1,0,1.31l.07-.55a5.5,5.5,0,0,1-.4,1.44l.21-.49a5.83,5.83,0,0,1-.72,1.23l.33-.41a5.85,5.85,0,0,1-1,1l.42-.32a1.07,1.07,0,0,1-.22.15l.49-.2a.47.47,0,0,1-.17,0l.55-.07h-.08l.54.07-.07,0,.49.21-.07,0,.42.32a.68.68,0,0,1-.12-.12l.32.41a4,4,0,0,1-.43-.75l.21.49a4.07,4.07,0,0,1-.28-1l.08.54a3.85,3.85,0,0,1,0-1l-.07.55a4.19,4.19,0,0,1,.27-1l-.21.5a4.39,4.39,0,0,1,.49-.84l-.32.42a5,5,0,0,1,.76-.76l-.42.32a5.1,5.1,0,0,1,.86-.53,2.1,2.1,0,0,0,.95-1.23,2.12,2.12,0,0,0-.21-1.58,2.09,2.09,0,0,0-1.23-1,2.32,2.32,0,0,0-1.59.21,6,6,0,0,0-3.17,7.09,5.11,5.11,0,0,0,1.19,2.1,2.51,2.51,0,0,0,2.37.6,3.74,3.74,0,0,0,1.38-.88,7.84,7.84,0,0,0,2.16-3.24,7.24,7.24,0,0,0,.18-4.2,2.06,2.06,0,1,0-4,1.1Z"/><path class="cls-7" d="M1344.26,159.06a6.85,6.85,0,0,1-2.51,7.11.7.7,0,0,1-.4.18.67.67,0,0,1-.5-.35,4.74,4.74,0,0,1-.72-4,5.21,5.21,0,0,1,2.78-3.19"/><path class="cls-7" d="M1342.68,159.5c0,.1,0,.21.07.32s.08.49,0,.21,0,.1,0,.16,0,.29,0,.44,0,.47,0,.71.06-.32,0,0c0,.15,0,.29-.08.43s-.13.46-.2.69l-.12.31c-.06.18.06-.15.06-.14s-.1.21-.12.25a6.37,6.37,0,0,1-.35.63,2.75,2.75,0,0,1-.19.28l-.09.14c-.12.18.25-.31,0,0s-.29.34-.45.5-.43.34-.6.53a.71.71,0,0,1,.35-.19l.56.13a.53.53,0,0,1,.63.22c.16.16-.07-.1-.11-.18a2.71,2.71,0,0,1-.21-.37s-.05-.11-.08-.16c-.1-.21.09.27,0,.05s-.15-.5-.21-.76,0,.28,0,0c0-.16,0-.32,0-.48s0-.24,0-.36c0-.33,0,.07,0,.08s0-.15,0-.17a2,2,0,0,1,.09-.35l.06-.21s.12-.29,0-.07,0,0,0,0a1.24,1.24,0,0,0,.1-.2,3,3,0,0,1,.24-.38l.09-.14c.12-.19-.19.22,0,.06s.2-.24.31-.35l.29-.28a1.29,1.29,0,0,1,.17-.15c-.07,0-.23.17,0,0a6.63,6.63,0,0,1,.81-.48,1.65,1.65,0,0,0,.59-2.25,1.68,1.68,0,0,0-2.25-.59,6.59,6.59,0,0,0-3.44,7.9,4.59,4.59,0,0,0,1.59,2.41,2,2,0,0,0,1.77.22,4.08,4.08,0,0,0,1.31-.88,8.79,8.79,0,0,0,2.37-3.62,8.22,8.22,0,0,0,.17-4.76,1.64,1.64,0,1,0-3.17.88Z"/><path class="cls-7" d="M1359.75,180.06a8.49,8.49,0,0,1-6.24,1.17,8.4,8.4,0,0,1-3-1.16,4.17,4.17,0,0,1-1.22-1.07c-.08-.12-.34-.63,0-.64,1.32,0,1.32-2.1,0-2.06a2.37,2.37,0,0,0-1.67,3.89,8.13,8.13,0,0,0,4,2.66,10.7,10.7,0,0,0,9.17-1c1.11-.72.08-2.51-1-1.78Z"/><path class="cls-7" d="M1336,186.29c2,5.08,7.14,7.77,12.28,8.78,5.32,1.05,11.73,1.42,16.6-1.36a1,1,0,0,0-1-1.78c-4.25,2.42-9.91,2.08-14.56,1.24-4.47-.8-9.47-2.91-11.3-7.42-.49-1.22-2.48-.69-2,.54Z"/><path class="cls-13" d="M1305.36,642.74a142.14,142.14,0,0,0-13.25,30.31c-.29.92,1.16,1.32,1.44.4a140.56,140.56,0,0,1,13.11-30,.75.75,0,0,0-1.3-.76Z"/><path class="cls-13" d="M1293,637a187.27,187.27,0,0,0-8.51,31c-.18.94,1.27,1.34,1.44.4a187.3,187.3,0,0,1,8.52-31c.33-.91-1.11-1.3-1.45-.4Z"/><path class="cls-13" d="M1273.74,787.55a39.56,39.56,0,0,1,4.73-16.48c.46-.85-.84-1.61-1.3-.76a41.24,41.24,0,0,0-4.93,17.24c-.06,1,1.44,1,1.5,0Z"/><path class="cls-13" d="M1267.27,784.59A31.08,31.08,0,0,1,1269,776a35.81,35.81,0,0,1,3-6,.75.75,0,0,0-1.3-.76,38.84,38.84,0,0,0-3.1,6.39,32.82,32.82,0,0,0-1.79,9c-.07,1,1.44,1,1.5,0Z"/></g></g></g></svg>