<?xml version="1.0" encoding="iso-8859-1"?>
<!-- Generator: Adobe Illustrator 16.0.0, SVG Export Plug-In . SVG Version: 6.00 Build 0)  -->
<!DOCTYPE svg PUBLIC "-//W3C//DTD SVG 1.1//EN" "http://www.w3.org/Graphics/SVG/1.1/DTD/svg11.dtd">
<svg version="1.1" id="Layer_1" xmlns="http://www.w3.org/2000/svg" xmlns:xlink="http://www.w3.org/1999/xlink" x="0px" y="0px"
	 width="192px" height="192px" viewBox="0 0 192 192" style="enable-background:new 0 0 192 192;" xml:space="preserve">
<g>
	<path style="fill:#B771AD;" d="M89.257,27.311c-1.418,0.004-2.836-0.016-4.254-0.07c-7.132-0.271-13.779-0.182-20.298,3.137
		c-7.914,4.03-12.81,11.615-17.324,18.953c-7.448,12.105-18.402,21.964-24.809,34.703c-6.443,12.813-3.971,29.046,4.782,40.187
		c6.766,8.288,17.085,12.783,26.789,16.616c10.959,4.328,21.8,9.031,32.902,12.983c12.638,4.499,28.38,8.712,41.741,5.198
		c7.058-1.856,12.956-6.276,18.591-10.729c3.294-2.603,6.514-5.297,9.805-7.903c10.85-8.593,20.874-16.532,24.943-30.412
		c4.827-16.463,1.437-34.676-6.036-49.8c-2.001-4.049-4.347-8.023-6.959-11.71c-8.771-12.382-20.915-19.019-35.839-21.055
		c-4.123-0.563-8.313-0.836-12.471-0.955C110.273,26.153,99.792,27.278,89.257,27.311z"/>
</g>
<g>
	<rect x="220" y="32.667" style="fill:#B771AD;" width="12" height="12"/>
	<rect x="220" y="33.34" style="fill:#B670AE;" width="12" height="12"/>
	<rect x="220" y="34.012" style="fill:#B670AF;" width="12" height="12"/>
	<rect x="219.999" y="34.685" style="fill:#B56FB0;" width="12.001" height="12"/>
	<rect x="220" y="35.357" style="fill:#B46EB1;" width="12" height="12"/>
	<rect x="220" y="36.03" style="fill:#B46EB2;" width="12" height="12"/>
	<rect x="220" y="36.703" style="fill:#B36DB3;" width="12" height="12"/>
	<rect x="220" y="37.375" style="fill:#B26CB4;" width="12" height="12"/>
	<rect x="220" y="38.048" style="fill:#B16BB5;" width="12" height="12"/>
	<rect x="220" y="38.721" style="fill:#B16BB6;" width="12" height="12"/>
	<rect x="220" y="39.393" style="fill:#B06AB7;" width="12" height="12"/>
	<rect x="220" y="40.065" style="fill:#AF69B8;" width="12" height="12"/>
	<rect x="220" y="40.738" style="fill:#AF69B9;" width="12" height="12"/>
	<rect x="220" y="41.411" style="fill:#AE68BA;" width="12" height="12"/>
	<rect x="220" y="42.084" style="fill:#AD67BB;" width="12" height="12"/>
	<rect x="220" y="42.756" style="fill:#AD67BC;" width="11.999" height="12"/>
	<rect x="220" y="43.429" style="fill:#AC66BD;" width="12" height="12"/>
	<rect x="220" y="44.102" style="fill:#AB65BE;" width="12.001" height="12"/>
	<rect x="220" y="44.774" style="fill:#AB65BF;" width="12" height="12"/>
	<rect x="220" y="45.446" style="fill:#AA64C0;" width="12" height="12"/>
	<rect x="220" y="46.119" style="fill:#A963C1;" width="12" height="12"/>
	<rect x="220" y="46.792" style="fill:#A963C2;" width="12" height="12"/>
	<rect x="220" y="47.465" style="fill:#A862C2;" width="12" height="12"/>
	<rect x="220" y="48.137" style="fill:#A761C3;" width="12" height="12"/>
	<rect x="220" y="48.81" style="fill:#A660C4;" width="12" height="12"/>
	<rect x="220" y="49.482" style="fill:#A660C5;" width="12" height="12"/>
	<rect x="220" y="50.155" style="fill:#A55FC6;" width="12" height="12"/>
	<rect x="220" y="50.828" style="fill:#A45EC7;" width="12" height="12"/>
	<rect x="220" y="51.5" style="fill:#A45EC8;" width="12" height="12"/>
	<rect x="220" y="52.173" style="fill:#A35DC9;" width="12" height="12"/>
	<rect x="220" y="52.846" style="fill:#A25CCA;" width="12" height="12"/>
	<rect x="220" y="53.518" style="fill:#A25CCB;" width="12" height="12"/>
	<rect x="220" y="54.191" style="fill:#A15BCC;" width="12" height="12"/>
	<rect x="220" y="54.863" style="fill:#A05ACD;" width="12" height="12"/>
	<rect x="220" y="55.536" style="fill:#A05ACE;" width="12" height="12"/>
	<rect x="220" y="56.208" style="fill:#9F59CF;" width="12" height="12"/>
	<rect x="220" y="56.881" style="fill:#9E58D0;" width="12" height="12"/>
	<rect x="220" y="57.554" style="fill:#9D57D1;" width="12" height="12"/>
	<rect x="220" y="58.227" style="fill:#9D57D2;" width="12" height="12"/>
	<rect x="220" y="58.899" style="fill:#9C56D3;" width="12" height="12"/>
	<rect x="220" y="59.572" style="fill:#9B55D4;" width="12" height="12"/>
	<rect x="220" y="60.244" style="fill:#9B55D5;" width="12" height="12"/>
	<rect x="220" y="60.917" style="fill:#9A54D6;" width="12" height="12"/>
	<rect x="220" y="61.257" style="fill:#9A53D6;" width="12" height="12"/>
	<rect x="220" y="61.598" style="fill:#9952D7;" width="12" height="12"/>
	<rect x="220" y="61.938" style="fill:#9951D7;" width="12" height="12"/>
	<rect x="220" y="62.278" style="fill:#9950D8;" width="12" height="12"/>
	<rect x="220" y="62.619" style="fill:#984FD8;" width="12" height="12"/>
	<rect x="220" y="62.959" style="fill:#984ED9;" width="12" height="12"/>
	<rect x="220" y="63.299" style="fill:#974DD9;" width="12" height="12"/>
	<rect x="220" y="63.64" style="fill:#974CDA;" width="12" height="12"/>
	<rect x="220" y="63.98" style="fill:#974BDA;" width="12" height="12"/>
	<rect x="220" y="64.321" style="fill:#964ADB;" width="12" height="12"/>
	<rect x="220" y="64.661" style="fill:#9649DB;" width="12" height="12"/>
	<rect x="220" y="65.001" style="fill:#9648DC;" width="12" height="12"/>
	<rect x="220" y="65.342" style="fill:#9547DC;" width="12" height="12"/>
	<rect x="220" y="65.682" style="fill:#9546DD;" width="12" height="12"/>
	<rect x="220" y="66.022" style="fill:#9545DD;" width="12" height="12"/>
	<rect x="220" y="66.362" style="fill:#9444DE;" width="12" height="12"/>
	<rect x="220" y="66.703" style="fill:#9443DE;" width="12" height="12"/>
	<rect x="220" y="67.043" style="fill:#9342DF;" width="12" height="12"/>
	<rect x="220" y="67.383" style="fill:#9341DF;" width="12" height="12"/>
	<rect x="220" y="67.724" style="fill:#9340E0;" width="12" height="12"/>
	<rect x="220" y="68.064" style="fill:#923FE0;" width="12" height="12"/>
	<rect x="220" y="68.405" style="fill:#923EE1;" width="12" height="12"/>
	<rect x="220" y="68.745" style="fill:#923DE1;" width="12" height="12"/>
	<rect x="220" y="69.086" style="fill:#913CE2;" width="12" height="12"/>
	<rect x="220" y="69.426" style="fill:#913BE2;" width="12" height="12"/>
	<rect x="220" y="69.767" style="fill:#913AE3;" width="12" height="12"/>
	<rect x="220" y="70.106" style="fill:#9039E3;" width="12" height="12"/>
	<rect x="220" y="70.447" style="fill:#9038E3;" width="12" height="12"/>
	<rect x="220" y="70.788" style="fill:#9037E4;" width="12" height="12"/>
	<rect x="220" y="71.128" style="fill:#8F36E4;" width="12" height="12"/>
	<rect x="220" y="71.468" style="fill:#8F35E5;" width="12" height="12"/>
	<rect x="220" y="71.809" style="fill:#8E34E5;" width="12" height="12"/>
	<rect x="220" y="72.149" style="fill:#8E33E6;" width="12" height="12"/>
	<rect x="220" y="72.489" style="fill:#8E32E6;" width="12" height="12"/>
	<rect x="220" y="72.83" style="fill:#8D31E7;" width="12" height="11.999"/>
	<rect x="220" y="73.17" style="fill:#8D30E7;" width="12" height="12"/>
	<rect x="220" y="73.511" style="fill:#8D2FE8;" width="12" height="12"/>
	<rect x="220" y="73.851" style="fill:#8C2EE8;" width="12" height="12"/>
	<rect x="220" y="74.191" style="fill:#8C2DE9;" width="12" height="12"/>
	<rect x="220" y="74.532" style="fill:#8C2CE9;" width="12" height="12"/>
	<rect x="220" y="74.872" style="fill:#8B2BEA;" width="12" height="12"/>
	<rect x="220" y="75.212" style="fill:#8B2BEA;" width="12" height="12"/>
	<rect x="220" y="75.553" style="fill:#8A2AEB;" width="12" height="12"/>
	<rect x="220" y="75.893" style="fill:#8A29EB;" width="12" height="12"/>
	<rect x="220" y="76.233" style="fill:#8A28EC;" width="12" height="12"/>
	<rect x="220" y="76.573" style="fill:#8927EC;" width="12" height="12"/>
	<rect x="220" y="76.914" style="fill:#8926ED;" width="12" height="12"/>
	<rect x="220" y="77.254" style="fill:#8925ED;" width="12" height="12"/>
	<rect x="220" y="77.595" style="fill:#8824EE;" width="12" height="12"/>
	<rect x="220" y="77.935" style="fill:#8823EE;" width="12" height="12"/>
	<rect x="220" y="78.275" style="fill:#8822EF;" width="12" height="12"/>
	<rect x="220" y="78.616" style="fill:#8721EF;" width="12" height="12"/>
	<rect x="220" y="78.956" style="fill:#8720F0;" width="12" height="12"/>
	<rect x="220" y="79.296" style="fill:#861FF0;" width="12" height="12"/>
	<rect x="220" y="79.637" style="fill:#861EF1;" width="12" height="12"/>
	<rect x="220" y="79.977" style="fill:#861DF1;" width="12" height="12"/>
	<rect x="220" y="80.317" style="fill:#851CF1;" width="12" height="12"/>
	<rect x="220" y="80.658" style="fill:#851BF2;" width="12" height="12"/>
	<rect x="220" y="80.999" style="fill:#851AF2;" width="12" height="12"/>
	<rect x="220" y="81.339" style="fill:#8419F3;" width="12" height="12"/>
	<rect x="220" y="81.679" style="fill:#8418F3;" width="12" height="12"/>
	<rect x="220" y="82.02" style="fill:#8417F4;" width="12" height="12"/>
	<rect x="220" y="82.36" style="fill:#8316F4;" width="12" height="12"/>
	<rect x="220" y="82.7" style="fill:#8315F5;" width="12" height="12"/>
	<rect x="220" y="83.041" style="fill:#8314F5;" width="12" height="12"/>
	<rect x="220" y="83.381" style="fill:#8213F6;" width="12" height="12"/>
	<rect x="220" y="83.721" style="fill:#8212F6;" width="12" height="12"/>
	<rect x="220" y="84.062" style="fill:#8111F7;" width="12" height="12"/>
	<rect x="220" y="84.402" style="fill:#8110F7;" width="12" height="12"/>
	<rect x="220" y="84.742" style="fill:#810FF8;" width="12" height="12"/>
	<rect x="220" y="85.083" style="fill:#800EF8;" width="12" height="12"/>
	<rect x="220" y="85.423" style="fill:#800DF9;" width="12" height="12"/>
	<rect x="220" y="85.764" style="fill:#800CF9;" width="12" height="12"/>
	<rect x="220" y="86.104" style="fill:#7F0BFA;" width="12" height="12"/>
	<rect x="220" y="86.444" style="fill:#7F0AFA;" width="12" height="12"/>
	<rect x="220" y="86.785" style="fill:#7F09FB;" width="12" height="12"/>
	<rect x="220" y="87.125" style="fill:#7E08FB;" width="12" height="12"/>
	<rect x="220" y="87.465" style="fill:#7E07FC;" width="12" height="12"/>
	<rect x="220" y="87.806" style="fill:#7D06FC;" width="12" height="12"/>
	<rect x="220" y="88.146" style="fill:#7D05FD;" width="12" height="12"/>
	<rect x="220" y="88.486" style="fill:#7D04FD;" width="12" height="12"/>
	<rect x="220" y="88.827" style="fill:#7C03FE;" width="12" height="12"/>
	<rect x="220" y="89.167" style="fill:#7C02FE;" width="12" height="12"/>
</g>
<g>
	<rect x="262.666" y="89.167" style="fill:#B771AD;" width="12" height="12"/>
	<rect x="262.666" y="88.495" style="fill:#B670AE;" width="12" height="12"/>
	<rect x="262.666" y="87.822" style="fill:#B670AF;" width="12" height="12"/>
	<rect x="262.666" y="87.149" style="fill:#B56FB0;" width="12" height="12"/>
	<rect x="262.666" y="86.477" style="fill:#B46EB1;" width="12" height="12"/>
	<rect x="262.666" y="85.804" style="fill:#B46EB2;" width="12" height="12"/>
	<rect x="262.666" y="85.131" style="fill:#B36DB3;" width="12" height="12"/>
	<rect x="262.666" y="84.458" style="fill:#B26CB4;" width="12" height="12"/>
	<rect x="262.666" y="83.786" style="fill:#B16BB5;" width="12" height="12"/>
	<rect x="262.666" y="83.114" style="fill:#B16BB6;" width="12.001" height="12"/>
	<rect x="262.666" y="82.441" style="fill:#B06AB7;" width="12" height="12"/>
	<rect x="262.665" y="81.768" style="fill:#AF69B8;" width="12.001" height="12"/>
	<rect x="262.666" y="81.096" style="fill:#AF69B9;" width="12" height="12"/>
	<rect x="262.666" y="80.423" style="fill:#AE68BA;" width="12" height="12"/>
	<rect x="262.666" y="79.75" style="fill:#AD67BB;" width="12" height="12"/>
	<rect x="262.666" y="79.077" style="fill:#AD67BC;" width="11.999" height="12"/>
	<rect x="262.666" y="78.405" style="fill:#AC66BD;" width="12" height="12"/>
	<rect x="262.666" y="77.732" style="fill:#AB65BE;" width="12.001" height="12"/>
	<rect x="262.666" y="77.06" style="fill:#AB65BF;" width="12" height="12"/>
	<rect x="262.666" y="76.387" style="fill:#AA64C0;" width="12" height="12"/>
	<rect x="262.666" y="75.715" style="fill:#A963C1;" width="12" height="12"/>
	<rect x="262.666" y="75.042" style="fill:#A963C2;" width="12" height="12"/>
	<rect x="262.666" y="74.37" style="fill:#A862C2;" width="12" height="12"/>
	<rect x="262.666" y="73.697" style="fill:#A761C3;" width="12" height="12"/>
	<rect x="262.666" y="73.024" style="fill:#A660C4;" width="12" height="12"/>
	<rect x="262.666" y="72.352" style="fill:#A660C5;" width="12" height="12"/>
	<rect x="262.666" y="71.679" style="fill:#A55FC6;" width="12" height="12"/>
	<rect x="262.666" y="71.006" style="fill:#A45EC7;" width="12" height="12"/>
	<rect x="262.666" y="70.334" style="fill:#A45EC8;" width="12" height="12"/>
	<rect x="262.666" y="69.661" style="fill:#A35DC9;" width="12" height="12"/>
	<rect x="262.666" y="68.988" style="fill:#A25CCA;" width="12" height="12"/>
	<rect x="262.666" y="68.315" style="fill:#A25CCB;" width="12" height="12"/>
	<rect x="262.666" y="67.644" style="fill:#A15BCC;" width="12" height="12"/>
	<rect x="262.666" y="66.971" style="fill:#A05ACD;" width="12" height="12"/>
	<rect x="262.666" y="66.298" style="fill:#A05ACE;" width="12" height="12"/>
	<rect x="262.666" y="65.625" style="fill:#9F59CF;" width="12" height="12"/>
	<rect x="262.666" y="64.953" style="fill:#9E58D0;" width="12" height="12"/>
	<rect x="262.666" y="64.28" style="fill:#9D57D1;" width="12" height="12"/>
	<rect x="262.666" y="63.607" style="fill:#9D57D2;" width="12" height="12"/>
	<rect x="262.666" y="62.935" style="fill:#9C56D3;" width="12" height="12"/>
	<rect x="262.666" y="62.262" style="fill:#9B55D4;" width="12" height="12"/>
	<rect x="262.666" y="61.589" style="fill:#9B55D5;" width="12" height="12"/>
	<rect x="262.666" y="60.917" style="fill:#9A54D6;" width="12" height="12"/>
	<rect x="262.666" y="60.577" style="fill:#9A53D6;" width="12" height="12"/>
	<rect x="262.666" y="60.237" style="fill:#9952D7;" width="12" height="12"/>
	<rect x="262.666" y="59.896" style="fill:#9951D7;" width="12" height="12"/>
	<rect x="262.666" y="59.555" style="fill:#9950D8;" width="12" height="12"/>
	<rect x="262.666" y="59.215" style="fill:#984FD8;" width="12" height="12"/>
	<rect x="262.666" y="58.875" style="fill:#984ED9;" width="12" height="12"/>
	<rect x="262.666" y="58.534" style="fill:#974DD9;" width="12" height="12"/>
	<rect x="262.666" y="58.194" style="fill:#974CDA;" width="12" height="12"/>
	<rect x="262.666" y="57.854" style="fill:#974BDA;" width="12" height="12"/>
	<rect x="262.666" y="57.513" style="fill:#964ADB;" width="12" height="12"/>
	<rect x="262.665" y="57.173" style="fill:#9649DB;" width="12" height="12"/>
	<rect x="262.666" y="56.833" style="fill:#9648DC;" width="12" height="12"/>
	<rect x="262.666" y="56.492" style="fill:#9547DC;" width="12" height="12"/>
	<rect x="262.666" y="56.152" style="fill:#9546DD;" width="12" height="12"/>
	<rect x="262.666" y="55.812" style="fill:#9545DD;" width="12" height="12"/>
	<rect x="262.666" y="55.471" style="fill:#9444DE;" width="12" height="12"/>
	<rect x="262.666" y="55.131" style="fill:#9443DE;" width="12" height="12"/>
	<rect x="262.666" y="54.791" style="fill:#9342DF;" width="12" height="12"/>
	<rect x="262.666" y="54.45" style="fill:#9341DF;" width="12" height="12"/>
	<rect x="262.666" y="54.11" style="fill:#9340E0;" width="12" height="12"/>
	<rect x="262.666" y="53.77" style="fill:#923FE0;" width="12" height="12"/>
	<rect x="262.666" y="53.429" style="fill:#923EE1;" width="12" height="12"/>
	<rect x="262.666" y="53.089" style="fill:#923DE1;" width="12" height="12"/>
	<rect x="262.666" y="52.748" style="fill:#913CE2;" width="12" height="12"/>
	<rect x="262.666" y="52.408" style="fill:#913BE2;" width="12" height="12"/>
	<rect x="262.666" y="52.067" style="fill:#913AE3;" width="12" height="12"/>
	<rect x="262.666" y="51.727" style="fill:#9039E3;" width="12" height="12"/>
	<rect x="262.666" y="51.387" style="fill:#9038E3;" width="12" height="12"/>
	<rect x="262.666" y="51.047" style="fill:#9037E4;" width="12" height="12"/>
	<rect x="262.666" y="50.706" style="fill:#8F36E4;" width="12" height="12"/>
	<rect x="262.666" y="50.365" style="fill:#8F35E5;" width="12" height="12"/>
	<rect x="262.666" y="50.025" style="fill:#8E34E5;" width="12" height="12"/>
	<rect x="262.666" y="49.685" style="fill:#8E33E6;" width="12" height="12"/>
	<rect x="262.666" y="49.345" style="fill:#8E32E6;" width="12" height="12"/>
	<rect x="262.666" y="49.004" style="fill:#8D31E7;" width="12" height="12"/>
	<rect x="262.666" y="48.664" style="fill:#8D30E7;" width="12" height="12"/>
	<rect x="262.666" y="48.324" style="fill:#8D2FE8;" width="12" height="12"/>
	<rect x="262.666" y="47.983" style="fill:#8C2EE8;" width="12" height="12"/>
	<rect x="262.666" y="47.643" style="fill:#8C2DE9;" width="12" height="12"/>
	<rect x="262.666" y="47.303" style="fill:#8C2CE9;" width="12" height="12"/>
	<rect x="262.666" y="46.962" style="fill:#8B2BEA;" width="12" height="12"/>
	<rect x="262.666" y="46.622" style="fill:#8B2BEA;" width="12" height="12"/>
	<rect x="262.666" y="46.281" style="fill:#8A2AEB;" width="12" height="12"/>
	<rect x="262.666" y="45.941" style="fill:#8A29EB;" width="12" height="12"/>
	<rect x="262.666" y="45.601" style="fill:#8A28EC;" width="12" height="12"/>
	<rect x="262.666" y="45.261" style="fill:#8927EC;" width="12" height="12"/>
	<rect x="262.666" y="44.92" style="fill:#8926ED;" width="12" height="12"/>
	<rect x="262.666" y="44.58" style="fill:#8925ED;" width="12" height="12"/>
	<rect x="262.666" y="44.239" style="fill:#8824EE;" width="12" height="12"/>
	<rect x="262.666" y="43.899" style="fill:#8823EE;" width="12" height="12"/>
	<rect x="262.666" y="43.559" style="fill:#8822EF;" width="12" height="12"/>
	<rect x="262.666" y="43.218" style="fill:#8721EF;" width="12" height="12"/>
	<rect x="262.666" y="42.878" style="fill:#8720F0;" width="12" height="12"/>
	<rect x="262.666" y="42.537" style="fill:#861FF0;" width="12" height="12"/>
	<rect x="262.666" y="42.197" style="fill:#861EF1;" width="12" height="12"/>
	<rect x="262.666" y="41.857" style="fill:#861DF1;" width="12" height="12"/>
	<rect x="262.666" y="41.516" style="fill:#851CF1;" width="12" height="12"/>
	<rect x="262.666" y="41.176" style="fill:#851BF2;" width="12" height="12"/>
	<rect x="262.666" y="40.836" style="fill:#851AF2;" width="12" height="12"/>
	<rect x="262.666" y="40.495" style="fill:#8419F3;" width="12" height="12"/>
	<rect x="262.666" y="40.155" style="fill:#8418F3;" width="12" height="12"/>
	<rect x="262.666" y="39.814" style="fill:#8417F4;" width="12" height="12"/>
	<rect x="262.666" y="39.474" style="fill:#8316F4;" width="12" height="12"/>
	<rect x="262.666" y="39.134" style="fill:#8315F5;" width="12" height="12"/>
	<rect x="262.666" y="38.793" style="fill:#8314F5;" width="12" height="12"/>
	<rect x="262.666" y="38.453" style="fill:#8213F6;" width="12" height="12"/>
	<rect x="262.666" y="38.112" style="fill:#8212F6;" width="12" height="12"/>
	<rect x="262.666" y="37.772" style="fill:#8111F7;" width="12" height="12"/>
	<rect x="262.666" y="37.432" style="fill:#8110F7;" width="12" height="12"/>
	<rect x="262.666" y="37.092" style="fill:#810FF8;" width="12" height="12"/>
	<rect x="262.666" y="36.751" style="fill:#800EF8;" width="12" height="12"/>
	<rect x="262.666" y="36.411" style="fill:#800DF9;" width="12" height="12"/>
	<rect x="262.666" y="36.071" style="fill:#800CF9;" width="12" height="12"/>
	<rect x="262.666" y="35.73" style="fill:#7F0BFA;" width="12" height="12"/>
	<rect x="262.666" y="35.39" style="fill:#7F0AFA;" width="12" height="12"/>
	<rect x="262.666" y="35.05" style="fill:#7F09FB;" width="12" height="12"/>
	<rect x="262.666" y="34.709" style="fill:#7E08FB;" width="12" height="12"/>
	<rect x="262.666" y="34.369" style="fill:#7E07FC;" width="12" height="12"/>
	<rect x="262.666" y="34.029" style="fill:#7D06FC;" width="12" height="12"/>
	<rect x="262.666" y="33.688" style="fill:#7D05FD;" width="12" height="12"/>
	<rect x="262.666" y="33.348" style="fill:#7D04FD;" width="12" height="12"/>
	<rect x="262.666" y="33.007" style="fill:#7C03FE;" width="12" height="12"/>
	<rect x="262.666" y="32.667" style="fill:#7C02FE;" width="12" height="12"/>
</g>
</svg>
